<svg xmlns="http://www.w3.org/2000/svg" xmlns:xlink="http://www.w3.org/1999/xlink" fill="none" version="1.1" width="64.61141204833984" height="13.044747352600098" viewBox="0 0 64.61141204833984 13.044747352600098"><defs><clipPath id="master_svg0_973_20751"><rect x="0" y="0" width="64.61141204833984" height="13.044747352600098" rx="0"/></clipPath></defs><g clip-path="url(#master_svg0_973_20751)"><path d="M7.0591254,0L1.6335168,2.1356447L0,8.629158L0,8.6580172L3.7629225,13.044747L9.1885319,10.909101L10.822049,4.4155889L10.822049,4.3867292L7.0591254,0ZM6.8841066,0.60606122L9.6260805,3.8095272L5.717309,1.6738836L5.6589699,1.6450233L3.5295627,1.9336241L6.8841066,0.60606122ZM1.9835563,2.6551254L5.1047397,2.2222247L0.67090863,7.8499365L1.9835563,2.6551254ZM5.8923278,2.3376648L10.0928,4.6176095L6.6799178,8.629158L5.8923278,2.3376648ZM0.81675839,8.2828369L5.367269,2.5108254L6.1548572,8.8023167L0.81675839,8.2828369ZM6.7965961,9.0331984L10.12197,5.223671L8.8384924,10.274181L6.7965961,9.0331984ZM0.90426809,8.8600368L6.417387,9.3795185L8.4884539,10.649363L3.9962821,12.409825L0.90426809,8.8600368Z" fill-rule="evenodd" fill="#000000" fill-opacity="1" style="mix-blend-mode:passthrough"/><path d="M16.42289667559375,2.0204873308593747L16.86044579359375,2.0204873308593747C17.09380507359375,2.0204873308593747,17.32716453359375,1.905047130859375,17.53135418359375,1.674166530859375L18.37728308359375,0.750644550859375C18.46479248359375,0.6352042738593751,18.55230258359375,0.577484130859375,18.63981298359375,0.577484130859375L25.20304968359375,0.577484130859375C25.29056258359375,0.606344166859375,25.34890078359375,0.6352042738593751,25.37806988359375,0.664064287859375L26.31150718359375,1.731886730859375C26.457355183593748,1.905047130859375,26.661545183593752,1.962767130859375,26.86573618359375,1.962767130859375L27.274116183593748,1.962767130859375C27.33245418359375,1.962767130859375,27.361625183593752,2.0204873308593747,27.361625183593752,2.078207530859375L27.361625183593752,3.290329930859375C27.361625183593752,3.348050130859375,27.33245818359375,3.376909930859375,27.274116183593748,3.376909930859375L25.78644748359375,3.376909930859375C25.46557998359375,3.376909930859375,25.20304968359375,3.261470330859375,24.99886318359375,3.030589330859375L24.21127128359375,2.2225076308593747C24.152932183593748,2.1070673308593753,24.06542258359375,2.049347130859375,23.97791048359375,2.049347130859375L19.80661078359375,2.049347130859375C19.66076088359375,2.078207230859375,19.51491118359375,2.164787630859375,19.36906148359375,2.280227730859375L18.61064358359375,3.059449630859375C18.31894398359375,3.348050130859375,17.939734983593752,3.492350330859375,17.47301518359375,3.492350330859375L16.42289779359375,3.492350330859375C16.36455768359375,3.492350330859375,16.33538818359375,3.463490530859375,16.33538818359375,3.405770330859375L16.33538818359375,2.135927530859375C16.33538707084865,2.078207230859375,16.36455656559375,2.049347130859375,16.42289667559375,2.0204873308593747ZM27.12826518359375,3.982971430859375L27.12826518359375,5.166234030859375C27.12826518359375,5.223954630859375,27.06992618359375,5.252813330859375,27.01158818359375,5.252813330859375L22.869454383593748,5.252813330859375C22.81111578359375,5.252813330859375,22.78194378359375,5.281674430859375,22.78194378359375,5.339393130859375L22.78194378359375,5.830015230859375C22.78194378359375,5.887736330859375,22.81111428359375,5.945455530859375,22.869454383593748,5.945455530859375L27.01158818359375,5.945455530859375C27.09909618359375,5.945455530859375,27.12826518359375,5.974316130859375,27.12826518359375,6.032035330859375L27.12826518359375,7.215297230859375C27.09909618359375,7.244157830859375,27.06992618359375,7.273018330859375,27.01158818359375,7.273018330859375L22.81111428359375,7.273018330859375C22.75277468359375,7.273018330859375,22.72360328359375,7.301877930859375,22.72360328359375,7.359598130859375L22.72360328359375,10.303323730859375C22.72360328359375,10.361044930859375,22.75277278359375,10.389903030859376,22.81111428359375,10.389903030859376L27.274116183593748,10.389903030859376C27.33245418359375,10.389903030859376,27.361625183593752,10.418764130859374,27.361625183593752,10.476484330859375L27.361625183593752,11.602026130859375C27.361625183593752,11.659748130859375,27.33245818359375,11.688606130859375,27.274116183593748,11.688606130859375L16.45206728359375,11.688606130859375C16.39372718359375,11.688606130859375,16.36455768359375,11.659748130859375,16.36455768359375,11.602026130859375L16.36455768359375,10.476484330859375C16.33538818359375,10.418764130859374,16.36455768359375,10.389903030859376,16.42289779359375,10.389903030859376L20.85672858359375,10.389903030859376C20.91506668359375,10.361044930859375,20.94423958359375,10.332183830859375,20.94423958359375,10.303323730859375L20.94423958359375,7.417318330859375C20.94423958359375,7.359598130859375,20.91507008359375,7.330738530859375,20.85672858359375,7.330738530859375L16.59791699359375,7.330738530859375C16.53957688359375,7.330738530859375,16.51040740359375,7.301877930859375,16.51040740359375,7.244157830859375L16.51040740359375,6.060895430859375C16.51040740359375,6.003175730859375,16.53957688359375,5.974316130859375,16.59791699359375,5.974316130859375L20.798389483593752,5.974316130859375C20.85672858359375,5.974316130859375,20.88589958359375,5.945455530859375,20.88589958359375,5.858875230859375L20.88589958359375,5.339394530859375C20.88589958359375,5.281674430859375,20.85673138359375,5.252814330859375,20.798389483593752,5.252814330859375L16.62708649359375,5.252814330859375C16.56874638359375,5.252814330859375,16.53957688359375,5.223954630859375,16.53957688359375,5.166234030859375L16.53957688359375,3.925252230859375L16.62708649359375,3.838671730859375L27.01158818359375,3.838671730859375C27.06992618359375,3.867531030859375,27.12826518359375,3.896390930859375,27.12826518359375,3.982971430859375ZM20.18581938359375,8.629441230859374L20.18581938359375,9.726124730859375C20.18581938359375,9.783844030859376,20.15664938359375,9.812705030859375,20.09830878359375,9.812705030859375L18.14392148359375,9.812705030859375C17.44384248359375,9.812705030859375,17.00629329359375,9.552962330859375,16.83127412359375,9.004622430859374L16.62708428359375,7.936800930859375C16.62708428359375,7.850219730859375,16.65625378359375,7.821359630859375,16.74376452359375,7.821359630859375L18.31894178359375,7.821359630859375C18.34811138359375,7.821359630859375,18.37728218359375,7.879080330859375,18.40645148359375,7.936800930859375L18.49396108359375,8.225399930859375C18.58147098359375,8.398561030859376,18.72732188359375,8.485140330859375,18.93151048359375,8.514000430859376L20.09830878359375,8.514000430859376C20.15664938359375,8.542863330859376,20.18581938359375,8.571722530859375,20.18581938359375,8.629441230859374ZM27.01158818359375,7.965660530859375L26.83656518359375,8.918041230859375C26.66154718359375,9.610683430859375,26.10731788359375,9.957003630859376,25.14470858359375,9.957003630859376L23.56953148359375,9.957003630859376C23.51119188359375,9.957003630859376,23.48202038359375,9.928144430859374,23.48202038359375,9.841564130859375L23.48202038359375,8.658300430859375C23.48202038359375,8.600579230859376,23.51119038359375,8.571721530859374,23.56953148359375,8.571721530859374L24.707160983593752,8.571721530859374C24.91134738359375,8.542860530859375,25.05719848359375,8.427420130859375,25.08637138359375,8.196539830859376L25.14470858359375,7.936800930859375C25.17388058359375,7.850219730859375,25.20304778359375,7.821359630859375,25.29055978359375,7.821359630859375L26.89490518359375,7.821359630859375C26.95324418359375,7.850219730859375,26.98241718359375,7.879080330859375,26.98241718359375,7.936800930859375L26.98241718359375,7.965660530859375L27.01158818359375,7.965660530859375Z" fill="#000000" fill-opacity="1" style="mix-blend-mode:passthrough"/><path d="M33.37072943203125,0.6348876953125L34.94590663203125,0.6348876953125C35.03341773203125,0.6348876953125,35.06258823203125,0.6637477263125,35.06258823203125,0.7503279553125L35.06258823203125,4.5598558953125C35.06258823203125,4.6175760953125,35.091755832031254,4.6464361953125,35.15009783203125,4.6464361953125L39.58393083203125,4.6464361953125C39.64226883203125,4.6464361953125,39.67144083203125,4.7041563953125,39.67144083203125,4.7618760953125L39.67144083203125,6.1471585953125C39.67144083203125,6.2048792953125,39.64226883203125,6.2337383953125,39.58393083203125,6.2337383953125L35.23760893203125,6.2337383953125C35.12092783203125,6.2625984953125,35.06259013203125,6.2914580953125,35.06259013203125,6.3491782953125L35.06259013203125,11.5439886953125C35.03341913203125,11.6017096953125,35.00425003203125,11.6305696953125,34.94590953203125,11.6305696953125L33.34156223203125,11.6305696953125C33.28322363203125,11.6305696953125,33.22488163203125,11.5728496953125,33.22488163203125,11.4862676953125L33.22488163203125,6.4068994953125C33.19571213203125,6.3203196953125,33.16654303203125,6.2625989953125,33.10820243203125,6.2625989953125L28.70353855903125,6.2625989953125C28.64519955803125,6.2625989953125,28.61602783203125,6.2337383953125,28.61602783203125,6.1760196953125L28.61602783203125,4.7907361953125C28.61602783203125,4.7330159953125,28.64519733203125,4.6752967953125,28.70353855903125,4.6752967953125L33.10819963203125,4.6752967953125C33.16653873203125,4.6752967953125,33.22487973203125,4.6464361953125,33.22487973203125,4.5887159953125L33.22487973203125,0.8080480053125C33.22487973203125,0.6926078273125,33.28321883203125,0.6637477263125,33.37072943203125,0.6348876953125Z" fill="#000000" fill-opacity="1" style="mix-blend-mode:passthrough"/><path d="M41.97571013984375,11.659573654296874L41.04227303984375,11.659573654296874C40.95476233584375,11.659573654296874,40.92559506384375,11.630712654296875,40.92559506384375,11.572993654296875L40.92559506384375,10.678332654296876C40.86725606784375,10.591751054296875,40.92559506384375,10.505168954296876,41.04227303984375,10.505168954296876L41.18812274984375,10.505168954296876C41.27563344984375,10.476310754296875,41.33397241984375,10.389730454296876,41.36314421984375,10.274291954296874L41.59650456984375,9.841390654296875C41.62567638984375,9.754808454296874,41.71318256984375,9.668229054296875,41.77152609984375,9.639368054296876L43.14251253984375,9.639368054296876C43.20085143984375,9.668229054296875,43.23002313984375,9.697089154296876,43.23002313984375,9.783668554296876L43.23002313984375,9.812528654296875L42.70496333984375,11.140090654296875C42.55910893984375,11.457551654296875,42.32575323984375,11.630712654296875,41.97571013984375,11.659573654296874ZM46.61373333984375,9.321906054296875L41.07144477984375,9.321906054296875C40.98393405984375,9.293046954296875,40.92559506384375,9.264186854296875,40.92559506384375,9.235327754296875L40.92559506384375,9.206468554296874L40.92559506384375,8.109785054296875C40.95476678784375,8.023205254296876,40.98393405984375,7.965485554296875,41.04227303984375,7.965485554296875L41.24646174984375,7.965485554296875C41.33397241984375,7.936624054296875,41.36313971984375,7.878905754296875,41.36313971984375,7.792325054296875L41.36313971984375,2.597514754296875C41.39231147984375,2.510934154296875,41.36313971984375,2.453214454296875,41.27562903984375,2.453214454296875L41.01310132984375,2.453214454296875C40.95476233584375,2.453214454296875,40.89642333984375,2.4243539542968753,40.89642333984375,2.366634054296875L40.89642333984375,1.183371844296875C40.92559506384375,1.096791654296875,40.95476233584375,1.0679315042968751,41.01310132984375,1.039071474296875L41.21729000984375,1.039071474296875C41.30480071984375,1.039071474296875,41.33396800984375,1.010211494296875,41.33396800984375,0.952491374296875L41.33396800984375,0.692750871296875C41.33396800984375,0.635030750296875,41.36313971984375,0.606170723104619,41.42147874984375,0.606170723104619L42.93831493984375,0.606170723104619C42.99665353984375,0.606170723104619,43.05499243984375,0.635030750296875,43.05499243984375,0.692750871296875L43.05499243984375,0.952491434296875C43.08416463984375,1.010211524296875,43.11333183984375,1.039071564296875,43.14250353984375,1.039071564296875L44.42597863984375,1.039071564296875C44.48431773984375,1.039071564296875,44.51348973984375,1.010211524296875,44.51348973984375,0.952491434296875L44.51348973984375,0.750470954296875C44.51348973984375,0.663890782296875,44.54266163984375,0.606170654296875,44.60100053984375,0.606170654296875L46.00115873984375,0.606170654296875C46.11783693984375,0.635030683296875,46.17618083984375,0.663890782296875,46.17618083984375,0.692750804296875L46.17618083984375,0.952491254296875C46.17618083984375,1.010211374296875,46.20535233984375,1.0390714142968749,46.26369093984375,1.0390714142968749L46.61372993984375,1.0390714142968749C46.672067639843746,1.0679315042968751,46.672067639843746,1.096791594296875,46.672067639843746,1.125651594296875L46.672067639843746,2.337773654296875C46.672067639843746,2.395493854296875,46.64289613984375,2.453214054296875,46.58455753984375,2.453214054296875L46.29285763984375,2.453214054296875C46.23451903984375,2.482074254296875,46.20534753984375,2.510934154296875,46.20534753984375,2.5686539542968747L46.20534753984375,7.821184154296875C46.20534753984375,7.878903854296875,46.23451903984375,7.936624054296875,46.29285763984375,7.936624054296875L46.55538463984375,7.936624054296875C46.61372423984375,7.936624054296875,46.64289613984375,7.965484154296875,46.64289613984375,8.023204754296875L46.64289613984375,9.148745554296875C46.75958303984375,9.264186854296875,46.70124383984375,9.293046954296875,46.61373333984375,9.321906054296875ZM43.11334063984375,2.597514754296875L43.11334063984375,3.290155854296875C43.14251253984375,3.376736354296875,43.17167953984375,3.434455654296875,43.25919033984375,3.463316154296875L44.45515963984375,3.463316154296875C44.57183763984375,3.463316154296875,44.63018173984375,3.405596254296875,44.65934843984375,3.290155854296875L44.65934843984375,2.655234854296875C44.630177239843746,2.539794654296875,44.57183763984375,2.482074254296875,44.45515963984375,2.453214454296875L43.31753353984375,2.453214454296875C43.20085143984375,2.453214454296875,43.14250803984375,2.510934154296875,43.11334063984375,2.597514754296875ZM44.45515513984375,4.733158154296875L43.31752943984375,4.733158154296875C43.20085143984375,4.762018154296875,43.14250803984375,4.819738354296875,43.14250803984375,4.906319654296875L43.14250803984375,5.570100354296875C43.17167953984375,5.685540154296875,43.23001863984375,5.743261354296875,43.31752943984375,5.743261354296875L44.45515513984375,5.743261354296875C44.57183363984375,5.743261354296875,44.630177239843746,5.685540154296875,44.65934393984375,5.570100354296875L44.65934393984375,4.906319654296875C44.630177239843746,4.819739354296875,44.57183763984375,4.762018154296875,44.45515513984375,4.733158154296875ZM43.31752943984375,7.965485554296875L44.45515513984375,7.965485554296875C44.57183363984375,7.936624054296875,44.630177239843746,7.878905754296875,44.65934393984375,7.792325054296875L44.65934393984375,7.128543854296875C44.63017273984375,7.041963054296875,44.57183363984375,6.984242954296875,44.45515513984375,6.984242954296875L43.31752943984375,6.984242954296875C43.20085143984375,7.013103454296875,43.14250803984375,7.041963054296875,43.14250803984375,7.128543854296875L43.14250803984375,7.792325054296875C43.14250803984375,7.878903854296875,43.20085143984375,7.936624054296875,43.31752943984375,7.965485554296875ZM49.384877239843746,11.515271654296875L49.384877239843746,10.505168954296876C49.41404913984375,10.418590554296875,49.44321723984375,10.360870354296875,49.53072733984375,10.360870354296875L50.05578803984375,10.360870354296875C50.31831643984375,10.332013154296876,50.43499753984375,10.129990554296874,50.43499753984375,9.812528654296875L50.43499753984375,8.773567154296876C50.43499753984375,8.686987854296875,50.40582563984375,8.629265754296876,50.34748553984375,8.600405254296875L48.88898993984375,8.600405254296875C48.83065173984375,8.629265754296876,48.80147933984375,8.658125854296875,48.80147933984375,8.744706154296875L48.80147933984375,10.303150154296874C48.77230883984375,11.168951654296874,48.305591539843746,11.659573654296874,47.43049283984375,11.717293654296874L46.14701743984375,11.717293654296874C45.82614613984375,11.717293654296874,45.56361913984375,11.688433654296874,45.35942883984375,11.630712654296875C45.15524103984375,11.572993654296875,45.03855893984375,11.428693654296875,44.95105213984375,11.255534654296875L44.51350333984375,9.841390654296875C44.48433133984375,9.754808454296874,44.54267453984375,9.725948354296875,44.63018173984375,9.725948354296875L46.00116773984375,9.725948354296875C46.08867783984375,9.725948354296875,46.14701743984375,9.754808454296874,46.14701743984375,9.812528654296875L46.26369573984375,10.129989654296875C46.32203433984375,10.303150154296874,46.43871683984375,10.389730454296876,46.61373333984375,10.418590554296875L46.75958303984375,10.418590554296875C46.96377183984375,10.389730454296876,47.08045533984375,10.245429954296876,47.10962103984375,10.014548254296875L47.10962103984375,0.9236313142968751C47.10962103984375,0.865911184296875,47.13879343984375,0.808191074296875,47.19713303984375,0.808191074296875L52.09768333984375,0.808191074296875C52.18519433984375,0.837051074296875,52.21436233984375,0.865911184296875,52.21436233984375,0.9236313142968751L52.21436233984375,8.917867654296876L52.243535339843746,9.783668554296876C52.243535339843746,10.389730454296876,52.15602233984375,10.851492654296875,52.01017233984375,11.168951654296874C51.86432233984375,11.486413654296875,51.57262433984375,11.630712654296875,51.16424433984375,11.659573654296874L49.58906653984375,11.659573654296874C49.47238823984375,11.659573654296874,49.41404623984375,11.601853654296875,49.384877239843746,11.515271654296875ZM50.43499373984375,3.953937554296875L50.43499373984375,2.395494254296875C50.43499373984375,2.2800540542968752,50.37665463984375,2.222334054296875,50.25997163984375,2.1934740542968747L48.91815283984375,2.1934740542968747C48.83064173984375,2.222334054296875,48.77230163984375,2.280054454296875,48.77230163984375,2.395494254296875L48.77230163984375,3.925076754296875C48.80147453984375,4.069377154296875,48.83064173984375,4.127098054296875,48.91815283984375,4.155957954296875L50.28913883984375,4.155957954296875C50.40582563984375,4.155957654296875,50.43499373984375,4.069377154296875,50.43499373984375,3.953937554296875ZM49.00566863984375,7.301702954296875L50.259976339843746,7.301702954296875C50.31831643984375,7.301702954296875,50.34748553984375,7.301702954296875,50.37665463984375,7.272843354296875C50.40582563984375,7.243982754296875,50.40582563984375,7.186263554296875,50.43499373984375,7.128542454296875L50.43499373984375,5.627820454296875C50.43499373984375,5.512380554296875,50.37665463984375,5.454660454296875,50.25997163984375,5.454660454296875L48.91815283984375,5.454660454296875C48.83064173984375,5.454660454296875,48.77230163984375,5.512380554296875,48.77230163984375,5.627820454296875L48.77230163984375,7.128543854296875C48.80147933984375,7.243982754296875,48.85981843984375,7.301702954296875,49.00566863984375,7.301702954296875Z" fill="#000000" fill-opacity="1" style="mix-blend-mode:passthrough"/><path d="M55.91893814140625,4.935258847265625L54.25625229140625,4.935258847265625C54.19791317140625,4.964120347265625,54.16874140140625,4.935258847265625,54.16874140140625,4.848679547265625L54.16874140140625,3.578836947265625C54.13956964140625,3.492256647265625,54.11040252140625,3.463397047265625,54.02289176140625,3.434536947265625L53.43949293140625,3.434536947265625C53.35198221340625,3.434536947265625,53.32281494140625,3.405676347265625,53.32281494140625,3.319096847265625L53.32281494140625,2.164693947265625C53.35198666540625,2.1069738472656248,53.38115393740625,2.078113547265625,53.43949293140625,2.078113547265625L53.93538099140625,2.078113547265625C54.08123082140625,2.078113547265625,54.197908761406254,2.020393447265625,54.28541940140625,1.876093347265625L54.81047944140625,0.750551104265625C54.83965094140625,0.721691079265625,54.86881844140625,0.692830978265625,54.92715744140625,0.692830978265625L56.88154224140625,0.692830978265625C56.93988184140625,0.692830978265625,56.96905284140625,0.721691008265625,56.96905284140625,0.750551104265625Q56.96905284140625,0.7794111372656249,56.96905284140625,0.7794111372656249L56.06478334140625,2.626454847265625L56.06478334140625,4.819818447265625C56.00644854140625,4.906399247265625,55.97727704140625,4.935258847265625,55.91893814140625,4.935258847265625ZM64.58240994140625,5.685621247265625L64.58240994140625,9.264267947265624C64.58240994140625,9.293128047265625,64.52407294140625,9.321988147265625,64.46573194140625,9.350847247265625L62.94889544140625,9.350847247265625C62.89055534140625,9.321988147265625,62.86138634140625,9.321988147265625,62.86138634140625,9.293128047265625L62.86138634140625,7.186343147265625C62.86138634140625,7.099763847265625,62.83221434140625,7.070903347265625,62.77387334140625,7.070903347265625L55.27720024140625,7.070903347265625C55.21886124140625,7.070903347265625,55.18968964140625,7.128623047265625,55.18968964140625,7.186343147265625L55.18968964140625,9.350847247265625C55.18968964140625,9.408567447265625,55.16051784140625,9.437427547265624,55.13135064140625,9.437427547265624L53.55617538140625,9.437427547265624C53.49783636140625,9.437427547265624,53.46866464140625,9.408567447265625,53.46866464140625,9.350847247265625L53.46866464140625,5.685621247265625C53.46866464140625,5.627901047265625,53.49783636140625,5.570180847265625,53.55617538140625,5.570180847265625L64.46573194140625,5.570180847265625C64.52407294140625,5.570180847265625,64.55324294140625,5.627901047265625,64.58240994140625,5.685621247265625ZM58.19419434140625,8.600485847265624L58.19419434140625,7.590384447265625C58.19419434140625,7.503804247265625,58.22336534140625,7.474944547265625,58.28170494140625,7.474944547265625L60.03190234140625,7.474944547265625C60.09023954140625,7.474944547265625,60.14858004140625,7.532663847265625,60.14858004140625,7.590384447265625L60.14858004140625,8.715927147265624C60.17775154140625,8.860226647265625,60.20691924140625,8.975666047265625,60.29442934140625,9.033388147265624L62.24881454140625,10.303230247265626C62.36549284140625,10.360950447265624,62.540514041406254,10.389810547265625,62.80304054140625,10.389810547265625L63.12391184140625,10.389810547265625L64.52407294140625,10.389810547265625C64.58240994140625,10.389810547265625,64.61157994140625,10.418670647265625,64.61157994140625,10.476390847265625L64.61157994140625,11.659651947265624C64.61157994140625,11.717372947265625,64.58240994140625,11.746232947265625,64.52407294140625,11.746232947265625L61.89877704140625,11.746232947265625C61.63624764140625,11.775092947265625,61.43205544140625,11.717372947265625,61.22786574140625,11.630790947265625L59.06929254140625,10.216648147265625L57.02739694140625,11.457629947265625C56.64818624140625,11.688509947265626,56.23980884140625,11.803949947265625,55.83142734140625,11.803949947265625L53.52700361140625,11.803949947265625C53.49783191140625,11.803949947265625,53.46866464140625,11.775092947265625,53.46866464140625,11.717372947265625L53.46866464140625,10.534108147265625C53.46866464140625,10.476387947265625,53.49783636140625,10.447528847265625,53.55617538140625,10.447528847265625L55.04384424140625,10.447528847265625C55.30637204140625,10.476387947265625,55.59807114140625,10.389809647265626,55.86060354140625,10.274369247265625L57.99001074140625,8.917945847265624C58.10668374140625,8.802507447265626,58.16502234140625,8.715927147265624,58.19419434140625,8.600485847265624ZM64.52407294140625,3.578836647265625L64.52407294140625,4.848678547265625C64.55324294140625,4.906399247265625,64.49489894140625,4.935258847265625,64.43655994140624,4.935258847265625L59.18597124140625,4.935258847265625C58.54423234140625,4.964118947265625,58.19419434140625,4.646658447265625,58.22336194140625,4.011737347265624L58.22336194140625,0.750551104265625C58.22336194140625,0.692830978265625,58.25253344140625,0.663970947265625,58.31087204140625,0.663970947265625L60.00273084140625,0.663970947265625C60.06106904140625,0.663970947265625,60.09023954140625,0.692830978265625,60.09023954140625,0.750551104265625L60.09023954140625,1.183451887265625C60.09023954140625,1.270032167265625,60.11941294140625,1.298892197265625,60.20691924140625,1.298892197265625L62.91972544140625,1.298892197265625C62.97806454140625,1.270032167265625,63.007235541406246,1.241172137265625,63.007235541406246,1.212311987265625L63.007235541406246,0.808271247265625C63.007235541406246,0.750551104265625,63.036407441406254,0.721691079265625,63.065573741406254,0.721691079265625L64.52407294140625,0.721691079265625C64.58240994140625,0.750551104265625,64.64074894140624,0.779411207265625,64.64074894140624,0.808271247265625L64.64074894140624,1.933813347265625C64.64074894140624,2.366714247265625,64.43655994140624,2.568734547265625,64.02817794140626,2.568734547265625L60.23608594140625,2.568734547265625C60.14857534140625,2.568734547265625,60.119408141406254,2.568734547265625,60.119408141406254,2.6264544472656253L60.119408141406254,3.376815547265625C60.119408141406254,3.463396347265625,60.17774634140625,3.492256147265625,60.29442934140625,3.492256147265625L64.46573194140625,3.492256147265625C64.46573194140625,3.463396347265625,64.49490394140625,3.521116247265625,64.52407294140625,3.578836647265625Z" fill="#000000" fill-opacity="1" style="mix-blend-mode:passthrough"/></g></svg>