<?xml version="1.0" encoding="UTF-8"?>
<svg version="1.1" xmlns="http://www.w3.org/2000/svg" width="179" height="179">
<path d="M0 0 C59.07 0 118.14 0 179 0 C179 59.07 179 118.14 179 179 C119.93 179 60.86 179 0 179 C0 119.93 0 60.86 0 0 Z " fill="#F8F8F8" transform="translate(0,0)"/>
<path d="M0 0 C1.32 0 2.64 0 4 0 C4 1.32 4 2.64 4 4 C8.62 4 13.24 4 18 4 C18 5.65 18 7.3 18 9 C19.65 9 21.3 9 23 9 C23 10.65 23 12.3 23 14 C24.32 14 25.64 14 27 14 C27 12.35 27 10.7 27 9 C28.65 9 30.3 9 32 9 C32 6.03 32 3.06 32 0 C33.65 0 35.3 0 37 0 C37 2.97 37 5.94 37 9 C38.32 9 39.64 9 41 9 C41 13.62 41 18.24 41 23 C39.68 23 38.36 23 37 23 C37 25.97 37 28.94 37 32 C38.32 32 39.64 32 41 32 C41 30.35 41 28.7 41 27 C42.65 27 44.3 27 46 27 C46 28.98 46 30.96 46 33 C44.68 33 43.36 33 42 33 C42 34.32 42 35.64 42 37 C40.02 37 38.04 37 36 37 C36 35.68 36 34.36 36 33 C34.68 33 33.36 33 32 33 C32 35.64 32 38.28 32 41 C30.68 41 29.36 41 28 41 C28 39.68 28 38.36 28 37 C26.35 37 24.7 37 23 37 C23 38.65 23 40.3 23 42 C24.32 42 25.64 42 27 42 C27 43.65 27 45.3 27 47 C31.62 47 36.24 47 41 47 C41 48.32 41 49.64 41 51 C39.68 51 38.36 51 37 51 C37 55.62 37 60.24 37 65 C38.32 65 39.64 65 41 65 C41 66.65 41 68.3 41 70 C42.65 70 44.3 70 46 70 C46 74.29 46 78.58 46 83 C47.32 83 48.64 83 50 83 C50 80.03 50 77.06 50 74 C51.65 74 53.3 74 55 74 C55 71.03 55 68.06 55 65 C53.68 65 52.36 65 51 65 C51 66.32 51 67.64 51 69 C49.35 69 47.7 69 46 69 C46 67.68 46 66.36 46 65 C44.68 65 43.36 65 42 65 C42 60.38 42 55.76 42 51 C43.32 51 44.64 51 46 51 C46 53.97 46 56.94 46 60 C47.65 60 49.3 60 51 60 C51 58.68 51 57.36 51 56 C53.97 56 56.94 56 60 56 C60 57.32 60 58.64 60 60 C61.32 60 62.64 60 64 60 C64 61.65 64 63.3 64 65 C62.68 65 61.36 65 60 65 C60 66.32 60 67.64 60 69 C61.65 69 63.3 69 65 69 C65 72.3 65 75.6 65 79 C67.97 79 70.94 79 74 79 C74 75.7 74 72.4 74 69 C72.68 69 71.36 69 70 69 C70 66.36 70 63.72 70 61 C72.64 61 75.28 61 78 61 C78 62.32 78 63.64 78 65 C79.65 65 81.3 65 83 65 C83 70.94 83 76.88 83 83 C81.68 83 80.36 83 79 83 C79 84.65 79 86.3 79 88 C80.32 88 81.64 88 83 88 C83 92.62 83 97.24 83 102 C80.03 102 77.06 102 74 102 C74 100.68 74 99.36 74 98 C72.68 98 71.36 98 70 98 C70 100.64 70 103.28 70 106 C71.32 106 72.64 106 74 106 C74 107.65 74 109.3 74 111 C76.97 111 79.94 111 83 111 C83 112.65 83 114.3 83 116 C80.03 116 77.06 116 74 116 C74 114.68 74 113.36 74 112 C72.35 112 70.7 112 69 112 C69 110.35 69 108.7 69 107 C67.68 107 66.36 107 65 107 C65 109.97 65 112.94 65 116 C66.32 116 67.64 116 69 116 C69 117.65 69 119.3 69 121 C67.68 121 66.36 121 65 121 C65 122.32 65 123.64 65 125 C66.32 125 67.64 125 69 125 C69 126.65 69 128.3 69 130 C70.65 130 72.3 130 74 130 C74 131.65 74 133.3 74 135 C71.03 135 68.06 135 65 135 C65 136.32 65 137.64 65 139 C61.7 139 58.4 139 55 139 C55 137.68 55 136.36 55 135 C53.68 135 52.36 135 51 135 C51 137.97 51 140.94 51 144 C49.35 144 47.7 144 46 144 C46 142.35 46 140.7 46 139 C44.35 139 42.7 139 41 139 C41 137.68 41 136.36 41 135 C39.68 135 38.36 135 37 135 C37 137.97 37 140.94 37 144 C33.7 144 30.4 144 27 144 C27 140.7 27 137.4 27 134 C30.3 134 33.6 134 37 134 C37 132.68 37 131.36 37 130 C36.20335938 130.01160156 35.40671875 130.02320313 34.5859375 130.03515625 C24.06151142 130.12478032 24.06151142 130.12478032 19 129 C19 128.01 19 127.02 19 126 C20.32 126 21.64 126 23 126 C23 124.35 23 122.7 23 121 C21.35 121 19.7 121 18 121 C18 122.32 18 123.64 18 125 C15.03 125 12.06 125 9 125 C9 126.65 9 128.3 9 130 C7.35 130 5.7 130 4 130 C4 131.65 4 133.3 4 135 C5.65 135 7.3 135 9 135 C9 136.32 9 137.64 9 139 C10.32 139 11.64 139 13 139 C13 136.03 13 133.06 13 130 C15.97 130 18.94 130 22 130 C22 132.97 22 135.94 22 139 C20.68 139 19.36 139 18 139 C18 140.65 18 142.3 18 144 C19.65 144 21.3 144 23 144 C23 145.32 23 146.64 23 148 C28.94 148 34.88 148 41 148 C41 149.65 41 151.3 41 153 C35.06 153 29.12 153 23 153 C23 151.68 23 150.36 23 149 C21.35 149 19.7 149 18 149 C18 150.32 18 151.64 18 153 C16.35 153 14.7 153 13 153 C13 150.03 13 147.06 13 144 C11.68 144 10.36 144 9 144 C9 145.32 9 146.64 9 148 C7.35 148 5.7 148 4 148 C4 146.68 4 145.36 4 144 C2.68 144 1.36 144 0 144 C0 142.35 0 140.7 0 139 C-1.65 139 -3.3 139 -5 139 C-5 140.65 -5 142.3 -5 144 C-6.65 144 -8.3 144 -10 144 C-10 142.35 -10 140.7 -10 139 C-12.97 139 -15.94 139 -19 139 C-19 137.68 -19 136.36 -19 135 C-12.73 135 -6.46 135 0 135 C0 133.35 0 131.7 0 130 C-1.98 130 -3.96 130 -6 130 C-6 131.32 -6 132.64 -6 134 C-8.64 134 -11.28 134 -14 134 C-14 132.68 -14 131.36 -14 130 C-15.65 130 -17.3 130 -19 130 C-19 131.32 -19 132.64 -19 134 C-20.32 134 -21.64 134 -23 134 C-23 132.68 -23 131.36 -23 130 C-24.65 130 -26.3 130 -28 130 C-28 135.94 -28 141.88 -28 148 C-25.03 148 -22.06 148 -19 148 C-19 149.98 -19 151.96 -19 154 C-22.3 154 -25.6 154 -29 154 C-29 152.35 -29 150.7 -29 149 C-30.32 149 -31.64 149 -33 149 C-33 141.08 -33 133.16 -33 125 C-31.68 125 -30.36 125 -29 125 C-29 123.68 -29 122.36 -29 121 C-30.32 121 -31.64 121 -33 121 C-33 116.38 -33 111.76 -33 107 C-37.62 107 -42.24 107 -47 107 C-47 105.35 -47 103.7 -47 102 C-42.38 102 -37.76 102 -33 102 C-33 100.68 -33 99.36 -33 98 C-31.35 98 -29.7 98 -28 98 C-28 96.35 -28 94.7 -28 93 C-29.65 93 -31.3 93 -33 93 C-33 94.32 -33 95.64 -33 97 C-35.97 97 -38.94 97 -42 97 C-42 95.68 -42 94.36 -42 93 C-43.65 93 -45.3 93 -47 93 C-47 94.65 -47 96.3 -47 98 C-48.32 98 -49.64 98 -51 98 C-51 99.32 -51 100.64 -51 102 C-54.3 102 -57.6 102 -61 102 C-61 100.35 -61 98.7 -61 97 C-58.03 97 -55.06 97 -52 97 C-52 95.35 -52 93.7 -52 92 C-50.35 92 -48.7 92 -47 92 C-47 90.68 -47 89.36 -47 88 C-48.65 88 -50.3 88 -52 88 C-52 86.35 -52 84.7 -52 83 C-50.35 83 -48.7 83 -47 83 C-47 80.03 -47 77.06 -47 74 C-48.32 74 -49.64 74 -51 74 C-51 75.65 -51 77.3 -51 79 C-55.62 79 -60.24 79 -65 79 C-65 80.32 -65 81.64 -65 83 C-62.03 83 -59.06 83 -56 83 C-56 86.3 -56 89.6 -56 93 C-60.62 93 -65.24 93 -70 93 C-70 91.35 -70 89.7 -70 88 C-68.68 88 -67.36 88 -66 88 C-66 86.68 -66 85.36 -66 84 C-67.32 84 -68.64 84 -70 84 C-70 82.35 -70 80.7 -70 79 C-68.68 79 -67.36 79 -66 79 C-66 77.35 -66 75.7 -66 74 C-64.35 74 -62.7 74 -61 74 C-61 72.68 -61 71.36 -61 70 C-63.97 70 -66.94 70 -70 70 C-70 68.35 -70 66.7 -70 65 C-68.68 65 -67.36 65 -66 65 C-66 63.35 -66 61.7 -66 60 C-67.32 60 -68.64 60 -70 60 C-70 57.03 -70 54.06 -70 51 C-68.35 51 -66.7 51 -65 51 C-65 53.97 -65 56.94 -65 60 C-63.68 60 -62.36 60 -61 60 C-61 58.68 -61 57.36 -61 56 C-58.03 56 -55.06 56 -52 56 C-52 57.32 -52 58.64 -52 60 C-50.35 60 -48.7 60 -47 60 C-47 58.68 -47 57.36 -47 56 C-44.03 56 -41.06 56 -38 56 C-38 54.35 -38 52.7 -38 51 C-40.97 51 -43.94 51 -47 51 C-47 52.32 -47 53.64 -47 55 C-48.32 55 -49.64 55 -51 55 C-51 52.03 -51 49.06 -51 46 C-55.62 46 -60.24 46 -65 46 C-65 43.03 -65 40.06 -65 37 C-56.09 37 -47.18 37 -38 37 C-38 38.32 -38 39.64 -38 41 C-39.32 41 -40.64 41 -42 41 C-42 42.98 -42 44.96 -42 47 C-39.03 47 -36.06 47 -33 47 C-33 49.64 -33 52.28 -33 55 C-31.68 55 -30.36 55 -29 55 C-29 53.68 -29 52.36 -29 51 C-25.7 51 -22.4 51 -19 51 C-19 49.35 -19 47.7 -19 46 C-20.65 46 -22.3 46 -24 46 C-24 44.68 -24 43.36 -24 42 C-21.03 42 -18.06 42 -15 42 C-15 43.32 -15 44.64 -15 46 C-13.02 46 -11.04 46 -9 46 C-9 47.32 -9 48.64 -9 50 C-8.01 50 -7.02 50 -6 50 C-6 45.71 -6 41.42 -6 37 C-7.32 37 -8.64 37 -10 37 C-10 35.68 -10 34.36 -10 33 C-11.32 33 -12.64 33 -14 33 C-14 34.32 -14 35.64 -14 37 C-15.65 37 -17.3 37 -19 37 C-19 35.68 -19 34.36 -19 33 C-20.65 33 -22.3 33 -24 33 C-24 31.35 -24 29.7 -24 28 C-22.35 28 -20.7 28 -19 28 C-19 29.32 -19 30.64 -19 32 C-17.68 32 -16.36 32 -15 32 C-15 29.03 -15 26.06 -15 23 C-13.02 23 -11.04 23 -9 23 C-9 25.97 -9 28.94 -9 32 C-7.68 32 -6.36 32 -5 32 C-5 25.73 -5 19.46 -5 13 C-3.35 13 -1.7 13 0 13 C0 14.65 0 16.3 0 18 C1.32 18 2.64 18 4 18 C4 21.3 4 24.6 4 28 C5.65 28 7.3 28 9 28 C9 29.32 9 30.64 9 32 C10.32 32 11.64 32 13 32 C13 28.7 13 25.4 13 22 C15.97 22 18.94 22 22 22 C22 19.36 22 16.72 22 14 C20.68 14 19.36 14 18 14 C18 15.32 18 16.64 18 18 C15.03 18 12.06 18 9 18 C9 16.68 9 15.36 9 14 C7.35 14 5.7 14 4 14 C4 12.35 4 10.7 4 9 C1.03 9 -1.94 9 -5 9 C-5 7.68 -5 6.36 -5 5 C-3.35 5 -1.7 5 0 5 C0 3.35 0 1.7 0 0 Z " fill="#F2F2F2" transform="translate(83,13)"/>
<path d="M0 0 C1.32 0 2.64 0 4 0 C4 1.65 4 3.3 4 5 C8.62 5 13.24 5 18 5 C18 6.32 18 7.64 18 9 C16.68 9 15.36 9 14 9 C14 13.62 14 18.24 14 23 C15.32 23 16.64 23 18 23 C18 24.65 18 26.3 18 28 C19.65 28 21.3 28 23 28 C23 32.29 23 36.58 23 41 C24.32 41 25.64 41 27 41 C27 38.03 27 35.06 27 32 C28.65 32 30.3 32 32 32 C32 29.03 32 26.06 32 23 C30.68 23 29.36 23 28 23 C28 24.32 28 25.64 28 27 C26.35 27 24.7 27 23 27 C23 25.68 23 24.36 23 23 C21.68 23 20.36 23 19 23 C19 18.38 19 13.76 19 9 C20.32 9 21.64 9 23 9 C23 11.97 23 14.94 23 18 C24.65 18 26.3 18 28 18 C28 16.68 28 15.36 28 14 C30.97 14 33.94 14 37 14 C37 15.32 37 16.64 37 18 C38.32 18 39.64 18 41 18 C41 19.65 41 21.3 41 23 C39.68 23 38.36 23 37 23 C37 24.32 37 25.64 37 27 C38.65 27 40.3 27 42 27 C42 30.3 42 33.6 42 37 C44.97 37 47.94 37 51 37 C51 33.7 51 30.4 51 27 C49.68 27 48.36 27 47 27 C47 24.36 47 21.72 47 19 C49.64 19 52.28 19 55 19 C55 20.32 55 21.64 55 23 C56.65 23 58.3 23 60 23 C60 28.94 60 34.88 60 41 C58.68 41 57.36 41 56 41 C56 42.65 56 44.3 56 46 C57.32 46 58.64 46 60 46 C60 50.62 60 55.24 60 60 C57.03 60 54.06 60 51 60 C51 58.68 51 57.36 51 56 C49.68 56 48.36 56 47 56 C47 58.64 47 61.28 47 64 C48.32 64 49.64 64 51 64 C51 65.65 51 67.3 51 69 C53.97 69 56.94 69 60 69 C60 70.65 60 72.3 60 74 C57.03 74 54.06 74 51 74 C51 72.68 51 71.36 51 70 C49.35 70 47.7 70 46 70 C46 68.35 46 66.7 46 65 C44.68 65 43.36 65 42 65 C42 67.97 42 70.94 42 74 C43.32 74 44.64 74 46 74 C46 75.65 46 77.3 46 79 C44.68 79 43.36 79 42 79 C42 80.32 42 81.64 42 83 C43.32 83 44.64 83 46 83 C46 84.65 46 86.3 46 88 C47.65 88 49.3 88 51 88 C51 89.65 51 91.3 51 93 C48.03 93 45.06 93 42 93 C42 94.32 42 95.64 42 97 C38.7 97 35.4 97 32 97 C32 95.68 32 94.36 32 93 C30.68 93 29.36 93 28 93 C28 95.97 28 98.94 28 102 C26.35 102 24.7 102 23 102 C23 100.35 23 98.7 23 97 C21.35 97 19.7 97 18 97 C18 95.68 18 94.36 18 93 C16.68 93 15.36 93 14 93 C14 95.97 14 98.94 14 102 C10.7 102 7.4 102 4 102 C4 98.7 4 95.4 4 92 C7.3 92 10.6 92 14 92 C14 90.68 14 89.36 14 88 C13.20335938 88.01160156 12.40671875 88.02320313 11.5859375 88.03515625 C1.06151142 88.12478032 1.06151142 88.12478032 -4 87 C-4 86.01 -4 85.02 -4 84 C-2.68 84 -1.36 84 0 84 C0 82.35 0 80.7 0 79 C-1.65 79 -3.3 79 -5 79 C-5 80.32 -5 81.64 -5 83 C-7.97 83 -10.94 83 -14 83 C-14 84.65 -14 86.3 -14 88 C-15.65 88 -17.3 88 -19 88 C-19 89.65 -19 91.3 -19 93 C-17.35 93 -15.7 93 -14 93 C-14 94.32 -14 95.64 -14 97 C-12.68 97 -11.36 97 -10 97 C-10 94.03 -10 91.06 -10 88 C-7.03 88 -4.06 88 -1 88 C-1 90.97 -1 93.94 -1 97 C-2.32 97 -3.64 97 -5 97 C-5 98.65 -5 100.3 -5 102 C-3.35 102 -1.7 102 0 102 C0 103.32 0 104.64 0 106 C5.94 106 11.88 106 18 106 C18 107.65 18 109.3 18 111 C12.06 111 6.12 111 0 111 C0 109.68 0 108.36 0 107 C-1.65 107 -3.3 107 -5 107 C-5 108.32 -5 109.64 -5 111 C-6.65 111 -8.3 111 -10 111 C-10 108.03 -10 105.06 -10 102 C-11.32 102 -12.64 102 -14 102 C-14 103.32 -14 104.64 -14 106 C-15.65 106 -17.3 106 -19 106 C-19 104.68 -19 103.36 -19 102 C-20.32 102 -21.64 102 -23 102 C-23 100.35 -23 98.7 -23 97 C-24.65 97 -26.3 97 -28 97 C-28 98.65 -28 100.3 -28 102 C-29.65 102 -31.3 102 -33 102 C-33 100.35 -33 98.7 -33 97 C-35.97 97 -38.94 97 -42 97 C-42 95.68 -42 94.36 -42 93 C-35.73 93 -29.46 93 -23 93 C-23 91.35 -23 89.7 -23 88 C-24.98 88 -26.96 88 -29 88 C-29 89.32 -29 90.64 -29 92 C-31.64 92 -34.28 92 -37 92 C-37 90.68 -37 89.36 -37 88 C-38.65 88 -40.3 88 -42 88 C-42 89.32 -42 90.64 -42 92 C-43.32 92 -44.64 92 -46 92 C-46 90.68 -46 89.36 -46 88 C-47.65 88 -49.3 88 -51 88 C-51 93.94 -51 99.88 -51 106 C-48.03 106 -45.06 106 -42 106 C-42 107.98 -42 109.96 -42 112 C-45.3 112 -48.6 112 -52 112 C-52 110.35 -52 108.7 -52 107 C-53.32 107 -54.64 107 -56 107 C-56 99.08 -56 91.16 -56 83 C-54.68 83 -53.36 83 -52 83 C-52 81.68 -52 80.36 -52 79 C-53.32 79 -54.64 79 -56 79 C-56 74.38 -56 69.76 -56 65 C-51.38 65 -46.76 65 -42 65 C-42 66.32 -42 67.64 -42 69 C-40.35 69 -38.7 69 -37 69 C-37 70.65 -37 72.3 -37 74 C-38.65 74 -40.3 74 -42 74 C-42 75.32 -42 76.64 -42 78 C-43.65 78 -45.3 78 -47 78 C-47 79.65 -47 81.3 -47 83 C-45.35 83 -43.7 83 -42 83 C-42 81.68 -42 80.36 -42 79 C-37.38 79 -32.76 79 -28 79 C-28 80.32 -28 81.64 -28 83 C-26.68 83 -25.36 83 -24 83 C-24 80.03 -24 77.06 -24 74 C-25.32 74 -26.64 74 -28 74 C-28 72.35 -28 70.7 -28 69 C-29.65 69 -31.3 69 -33 69 C-33 67.35 -33 65.7 -33 64 C-30.03 64 -27.06 64 -24 64 C-24 62.68 -24 61.36 -24 60 C-20.7 60 -17.4 60 -14 60 C-14 61.32 -14 62.64 -14 64 C-12.68 64 -11.36 64 -10 64 C-10 62.68 -10 61.36 -10 60 C-8.35 60 -6.7 60 -5 60 C-5 61.65 -5 63.3 -5 65 C-3.35 65 -1.7 65 0 65 C0 63.35 0 61.7 0 60 C1.32 60 2.64 60 4 60 C4 63.3 4 66.6 4 70 C8.62 70 13.24 70 18 70 C18 70.99 18 71.98 18 73 C16.68 73 15.36 73 14 73 C13.67 75.97 13.34 78.94 13 82 C12.01 82 11.02 82 10 82 C9.505 78.535 9.505 78.535 9 75 C6.03 74.34 3.06 73.68 0 73 C0 71.68 0 70.36 0 69 C-4.62 69 -9.24 69 -14 69 C-14 67.68 -14 66.36 -14 65 C-15.65 65 -17.3 65 -19 65 C-19 67.97 -19 70.94 -19 74 C-17.63746094 73.98839844 -16.27492187 73.97679687 -14.87109375 73.96484375 C-13.05989721 73.95545931 -11.24869918 73.94635981 -9.4375 73.9375 C-8.09461914 73.92493164 -8.09461914 73.92493164 -6.72460938 73.91210938 C-1.70002057 73.89370429 3.04817291 74.13733602 8 75 C8.33 75.99 8.66 76.98 9 78 C7.35 78 5.7 78 4 78 C4 79.98 4 81.96 4 84 C8.95 83.67 13.9 83.34 19 83 C19 78.71 19 74.42 19 70 C21.97 70 24.94 70 28 70 C28 62.08 28 54.16 28 46 C26.35 46 24.7 46 23 46 C23 44.68 23 43.36 23 42 C21.35 42 19.7 42 18 42 C18 40.35 18 38.7 18 37 C15.03 37 12.06 37 9 37 C9 27.76 9 18.52 9 9 C6.03 9 3.06 9 0 9 C0 6.03 0 3.06 0 0 Z " fill="#212121" transform="translate(106,55)"/>
<path d="M0 0 C1.32 0 2.64 0 4 0 C4 1.65 4 3.3 4 5 C8.62 5 13.24 5 18 5 C18 6.32 18 7.64 18 9 C16.68 9 15.36 9 14 9 C14 13.62 14 18.24 14 23 C15.32 23 16.64 23 18 23 C18 24.65 18 26.3 18 28 C19.65 28 21.3 28 23 28 C23 32.29 23 36.58 23 41 C24.32 41 25.64 41 27 41 C27 38.03 27 35.06 27 32 C28.65 32 30.3 32 32 32 C32 29.03 32 26.06 32 23 C30.68 23 29.36 23 28 23 C28 24.32 28 25.64 28 27 C26.35 27 24.7 27 23 27 C23 25.68 23 24.36 23 23 C21.68 23 20.36 23 19 23 C19 18.38 19 13.76 19 9 C20.32 9 21.64 9 23 9 C23 11.97 23 14.94 23 18 C24.65 18 26.3 18 28 18 C28 16.68 28 15.36 28 14 C30.97 14 33.94 14 37 14 C37 15.32 37 16.64 37 18 C38.32 18 39.64 18 41 18 C41 19.65 41 21.3 41 23 C39.68 23 38.36 23 37 23 C37 24.32 37 25.64 37 27 C38.65 27 40.3 27 42 27 C42 30.3 42 33.6 42 37 C44.97 37 47.94 37 51 37 C51 33.7 51 30.4 51 27 C49.68 27 48.36 27 47 27 C47 24.36 47 21.72 47 19 C49.64 19 52.28 19 55 19 C55 20.32 55 21.64 55 23 C56.65 23 58.3 23 60 23 C60 28.94 60 34.88 60 41 C58.68 41 57.36 41 56 41 C56 42.65 56 44.3 56 46 C57.32 46 58.64 46 60 46 C60 50.62 60 55.24 60 60 C57.03 60 54.06 60 51 60 C51 58.68 51 57.36 51 56 C49.68 56 48.36 56 47 56 C47 58.64 47 61.28 47 64 C48.32 64 49.64 64 51 64 C51 65.65 51 67.3 51 69 C53.97 69 56.94 69 60 69 C60 70.65 60 72.3 60 74 C57.03 74 54.06 74 51 74 C51 72.68 51 71.36 51 70 C49.35 70 47.7 70 46 70 C46 65.38 46 60.76 46 56 C43.03 56 40.06 56 37 56 C36.67 58.64 36.34 61.28 36 64 C37.65 64.33 39.3 64.66 41 65 C41 73.91 41 82.82 41 92 C33.74 92 26.48 92 19 92 C19 84.74 19 77.48 19 70 C21.97 70 24.94 70 28 70 C28 62.08 28 54.16 28 46 C26.35 46 24.7 46 23 46 C23 44.68 23 43.36 23 42 C21.35 42 19.7 42 18 42 C18 40.35 18 38.7 18 37 C15.03 37 12.06 37 9 37 C9 27.76 9 18.52 9 9 C6.03 9 3.06 9 0 9 C0 6.03 0 3.06 0 0 Z " fill="#1D1D1D" transform="translate(106,55)"/>
<path d="M0 0 C8.91 0 17.82 0 27 0 C27 1.32 27 2.64 27 4 C25.68 4 24.36 4 23 4 C23 5.98 23 7.96 23 10 C25.97 10 28.94 10 32 10 C32 12.64 32 15.28 32 18 C33.32 18 34.64 18 36 18 C36 16.68 36 15.36 36 14 C39.3 14 42.6 14 46 14 C46.495 17.465 46.495 17.465 47 21 C46.505 20.01 46.505 20.01 46 19 C43.03 19 40.06 19 37 19 C37 20.32 37 21.64 37 23 C39.97 23 42.94 23 46 23 C46 24.65 46 26.3 46 28 C42.7 28 39.4 28 36 28 C36 26.35 36 24.7 36 23 C31.71 23 27.42 23 23 23 C23 24.65 23 26.3 23 28 C25.97 28 28.94 28 32 28 C32 29.65 32 31.3 32 33 C29.03 33 26.06 33 23 33 C23 34.32 23 35.64 23 37 C24.32 37 25.64 37 27 37 C27 38.65 27 40.3 27 42 C28.65 42 30.3 42 32 42 C32 43.32 32 44.64 32 46 C33.65 46 35.3 46 37 46 C37 49.3 37 52.6 37 56 C35.35 56 33.7 56 32 56 C32 57.32 32 58.64 32 60 C29.03 60 26.06 60 23 60 C23 58.68 23 57.36 23 56 C21.35 56 19.7 56 18 56 C18 57.65 18 59.3 18 61 C16.68 61 15.36 61 14 61 C14 62.32 14 63.64 14 65 C10.7 65 7.4 65 4 65 C4 63.35 4 61.7 4 60 C6.97 60 9.94 60 13 60 C13 58.35 13 56.7 13 55 C14.65 55 16.3 55 18 55 C18 53.68 18 52.36 18 51 C16.35 51 14.7 51 13 51 C13 49.35 13 47.7 13 46 C14.65 46 16.3 46 18 46 C18 43.03 18 40.06 18 37 C16.68 37 15.36 37 14 37 C14 38.65 14 40.3 14 42 C9.38 42 4.76 42 0 42 C0 43.32 0 44.64 0 46 C2.97 46 5.94 46 9 46 C9 49.3 9 52.6 9 56 C4.38 56 -0.24 56 -5 56 C-5 54.35 -5 52.7 -5 51 C-3.68 51 -2.36 51 -1 51 C-1 49.68 -1 48.36 -1 47 C-2.32 47 -3.64 47 -5 47 C-5 45.35 -5 43.7 -5 42 C-3.68 42 -2.36 42 -1 42 C-1 40.35 -1 38.7 -1 37 C0.65 37 2.3 37 4 37 C4 35.68 4 34.36 4 33 C1.03 33 -1.94 33 -5 33 C-5 31.35 -5 29.7 -5 28 C-3.68 28 -2.36 28 -1 28 C-1 26.35 -1 24.7 -1 23 C-2.32 23 -3.64 23 -5 23 C-5 20.03 -5 17.06 -5 14 C-3.35 14 -1.7 14 0 14 C0 16.97 0 19.94 0 23 C1.32 23 2.64 23 4 23 C4 21.68 4 20.36 4 19 C6.97 19 9.94 19 13 19 C13 20.32 13 21.64 13 23 C14.65 23 16.3 23 18 23 C18 21.68 18 20.36 18 19 C20.97 19 23.94 19 27 19 C27 17.35 27 15.7 27 14 C24.03 14 21.06 14 18 14 C18 15.32 18 16.64 18 18 C16.68 18 15.36 18 14 18 C14 15.03 14 12.06 14 9 C9.38 9 4.76 9 0 9 C0 6.03 0 3.06 0 0 Z " fill="#121212" transform="translate(18,50)"/>
<path d="M0 0 C0.69275528 -0.0038269 1.38551056 -0.00765381 2.09925842 -0.01159668 C3.56089739 -0.01431212 5.02258526 -0.00697639 6.48413086 0.00976562 C8.71253779 0.03115289 10.93770961 0.00997357 13.16601562 -0.015625 C14.58985082 -0.01298102 16.01368401 -0.00785457 17.4375 0 C18.72648193 0.00451172 20.01546387 0.00902344 21.34350586 0.01367188 C25.43593314 0.62911813 27.08487674 1.39596239 29.78515625 4.53125 C30.43212891 7.84350586 30.43212891 7.84350586 30.44921875 11.74609375 C30.45400238 12.43884903 30.45878601 13.13160431 30.4637146 13.84535217 C30.46710892 15.30699948 30.4579386 16.76872318 30.43701172 18.23022461 C30.41027015 20.45925612 30.43674364 22.68323556 30.46875 24.91210938 C30.46544501 26.33594855 30.45903691 27.75978459 30.44921875 29.18359375 C30.44075928 31.11706665 30.44075928 31.11706665 30.43212891 33.08959961 C29.6051656 37.48873236 28.41222973 38.94273776 24.78515625 41.53125 C21.34350586 42.17822266 21.34350586 42.17822266 17.4375 42.1953125 C16.74378799 42.20009613 16.05007599 42.20487976 15.33534241 42.20980835 C13.87547525 42.21319697 12.41553114 42.20406688 10.95581055 42.18310547 C8.72467858 42.15627432 6.49855648 42.18289891 4.26757812 42.21484375 C2.84504102 42.21154025 1.42250703 42.20513523 0 42.1953125 C-1.287854 42.18967285 -2.57570801 42.1840332 -3.90258789 42.17822266 C-7.21484375 41.53125 -7.21484375 41.53125 -9.63256836 39.44897461 C-11.6071085 35.80791163 -11.73162268 33.31792629 -11.74609375 29.18359375 C-11.74992065 28.48988174 -11.75374756 27.79616974 -11.75769043 27.08143616 C-11.76040131 25.62157735 -11.75309777 24.1616693 -11.73632812 22.7019043 C-11.71486916 20.47139136 -11.73616934 18.24408651 -11.76171875 16.01367188 C-11.75907596 14.59113875 -11.75395197 13.16860762 -11.74609375 11.74609375 C-11.74158203 10.45823975 -11.73707031 9.17038574 -11.73242188 7.84350586 C-11.21484375 4.53125 -11.21484375 4.53125 -9.63256836 2.11352539 C-6.31634966 -0.05676779 -3.94808637 0.01383127 0 0 Z " fill="#030202" transform="translate(80.21484375,68.46875)"/>
<path d="M0 0 C1.32 0 2.64 0 4 0 C4 1.32 4 2.64 4 4 C8.62 4 13.24 4 18 4 C18 5.65 18 7.3 18 9 C19.65 9 21.3 9 23 9 C23 10.65 23 12.3 23 14 C24.32 14 25.64 14 27 14 C27 12.35 27 10.7 27 9 C28.65 9 30.3 9 32 9 C32 6.03 32 3.06 32 0 C33.65 0 35.3 0 37 0 C37 2.97 37 5.94 37 9 C38.32 9 39.64 9 41 9 C41 13.62 41 18.24 41 23 C39.68 23 38.36 23 37 23 C37 25.97 37 28.94 37 32 C38.32 32 39.64 32 41 32 C41 30.35 41 28.7 41 27 C42.65 27 44.3 27 46 27 C46 28.98 46 30.96 46 33 C44.68 33 43.36 33 42 33 C42 34.32 42 35.64 42 37 C40.02 37 38.04 37 36 37 C36 35.68 36 34.36 36 33 C34.68 33 33.36 33 32 33 C32 35.64 32 38.28 32 41 C30.68 41 29.36 41 28 41 C28 39.68 28 38.36 28 37 C26.35 37 24.7 37 23 37 C23 38.65 23 40.3 23 42 C18.38 42 13.76 42 9 42 C9 43.32 9 44.64 9 46 C10.65 46 12.3 46 14 46 C14 47.65 14 49.3 14 51 C7.73 51 1.46 51 -5 51 C-5 46.38 -5 41.76 -5 37 C-6.65 37 -8.3 37 -10 37 C-10 35.68 -10 34.36 -10 33 C-11.32 33 -12.64 33 -14 33 C-14 34.32 -14 35.64 -14 37 C-15.65 37 -17.3 37 -19 37 C-19 35.68 -19 34.36 -19 33 C-20.65 33 -22.3 33 -24 33 C-24 31.35 -24 29.7 -24 28 C-22.35 28 -20.7 28 -19 28 C-19 29.32 -19 30.64 -19 32 C-17.68 32 -16.36 32 -15 32 C-15 29.03 -15 26.06 -15 23 C-13.02 23 -11.04 23 -9 23 C-9 25.97 -9 28.94 -9 32 C-7.68 32 -6.36 32 -5 32 C-5 25.73 -5 19.46 -5 13 C-3.35 13 -1.7 13 0 13 C0 14.65 0 16.3 0 18 C1.32 18 2.64 18 4 18 C4 21.3 4 24.6 4 28 C5.65 28 7.3 28 9 28 C9 29.32 9 30.64 9 32 C10.32 32 11.64 32 13 32 C13 28.7 13 25.4 13 22 C15.97 22 18.94 22 22 22 C22 19.36 22 16.72 22 14 C20.68 14 19.36 14 18 14 C18 15.32 18 16.64 18 18 C15.03 18 12.06 18 9 18 C9 16.68 9 15.36 9 14 C7.35 14 5.7 14 4 14 C4 12.35 4 10.7 4 9 C1.03 9 -1.94 9 -5 9 C-5 7.68 -5 6.36 -5 5 C-3.35 5 -1.7 5 0 5 C0 3.35 0 1.7 0 0 Z " fill="#F0F0F0" transform="translate(83,13)"/>
<path d="M0 0 C0.495 1.98 0.495 1.98 1 4 C2.32 4 3.64 4 5 4 C5 8.62 5 13.24 5 18 C2.03 18 -0.94 18 -4 18 C-4 16.68 -4 15.36 -4 14 C-5.32 14 -6.64 14 -8 14 C-8 16.64 -8 19.28 -8 22 C-6.68 22 -5.36 22 -4 22 C-4 23.65 -4 25.3 -4 27 C-1.03 27 1.94 27 5 27 C5 28.65 5 30.3 5 32 C2.03 32 -0.94 32 -4 32 C-4 30.68 -4 29.36 -4 28 C-5.65 28 -7.3 28 -9 28 C-9 23.38 -9 18.76 -9 14 C-11.97 14 -14.94 14 -18 14 C-18.33 16.64 -18.66 19.28 -19 22 C-17.35 22.33 -15.7 22.66 -14 23 C-14 31.91 -14 40.82 -14 50 C-21.26 50 -28.52 50 -36 50 C-36 42.74 -36 35.48 -36 28 C-33.03 28 -30.06 28 -27 28 C-27 20.41 -27 12.82 -27 5 C-24.36 5 -21.72 5 -19 5 C-19 5.66 -19 6.32 -19 7 C-18.34 7 -17.68 7 -17 7 C-17 6.34 -17 5.68 -17 5 C-11.27959989 4.1679418 -5.77759884 3.87963336 0 4 C0 2.68 0 1.36 0 0 Z " fill="#101010" transform="translate(161,97)"/>
<path d="M0 0 C10.56 0 21.12 0 32 0 C32 10.56 32 21.12 32 32 C21.44 32 10.88 32 0 32 C0 21.44 0 10.88 0 0 Z " fill="#E4E4E4" transform="translate(13,134)"/>
<path d="M0 0 C10.56 0 21.12 0 32 0 C32 10.56 32 21.12 32 32 C21.44 32 10.88 32 0 32 C0 21.44 0 10.88 0 0 Z " fill="#E4E4E4" transform="translate(134,13)"/>
<path d="M0 0 C10.56 0 21.12 0 32 0 C32 10.56 32 21.12 32 32 C21.44 32 10.88 32 0 32 C0 21.44 0 10.88 0 0 Z " fill="#E4E4E4" transform="translate(13,13)"/>
<path d="M0 0 C1.65 0 3.3 0 5 0 C5 1.65 5 3.3 5 5 C6.32 5 7.64 5 9 5 C9 8.3 9 11.6 9 15 C10.65 15 12.3 15 14 15 C14 16.65 14 18.3 14 20 C15.32 20 16.64 20 18 20 C18 21.32 18 22.64 18 24 C19.65 24 21.3 24 23 24 C23 22.68 23 21.36 23 20 C24.65 20 26.3 20 28 20 C28 18.35 28 16.7 28 15 C29.32 15 30.64 15 32 15 C32 16.65 32 18.3 32 20 C33.65 20 35.3 20 37 20 C37 22.64 37 25.28 37 28 C35.68 28 34.36 28 33 28 C33 26.68 33 25.36 33 24 C31.35 24 29.7 24 28 24 C28 25.65 28 27.3 28 29 C23.38 29 18.76 29 14 29 C14 30.32 14 31.64 14 33 C15.65 33 17.3 33 19 33 C19 34.65 19 36.3 19 38 C12.73 38 6.46 38 0 38 C0 33.38 0 28.76 0 24 C-1.65 24 -3.3 24 -5 24 C-5 22.68 -5 21.36 -5 20 C-6.32 20 -7.64 20 -9 20 C-9 21.32 -9 22.64 -9 24 C-10.65 24 -12.3 24 -14 24 C-14 22.68 -14 21.36 -14 20 C-15.65 20 -17.3 20 -19 20 C-19 18.35 -19 16.7 -19 15 C-17.35 15 -15.7 15 -14 15 C-14 16.32 -14 17.64 -14 19 C-12.68 19 -11.36 19 -10 19 C-10 16.03 -10 13.06 -10 10 C-8.02 10 -6.04 10 -4 10 C-4 12.97 -4 15.94 -4 19 C-2.68 19 -1.36 19 0 19 C0 12.73 0 6.46 0 0 Z " fill="#060606" transform="translate(78,26)"/>
<path d="M0 0 C1.32 0 2.64 0 4 0 C4 1.65 4 3.3 4 5 C8.62 5 13.24 5 18 5 C18 6.32 18 7.64 18 9 C16.68 9 15.36 9 14 9 C14 13.62 14 18.24 14 23 C15.32 23 16.64 23 18 23 C18 24.65 18 26.3 18 28 C19.65 28 21.3 28 23 28 C23 32.29 23 36.58 23 41 C24.32 41 25.64 41 27 41 C27 38.03 27 35.06 27 32 C28.65 32 30.3 32 32 32 C32 29.03 32 26.06 32 23 C30.68 23 29.36 23 28 23 C28 24.32 28 25.64 28 27 C26.35 27 24.7 27 23 27 C23 25.68 23 24.36 23 23 C21.68 22.67 20.36 22.34 19 22 C23.62 22 28.24 22 33 22 C33 26.29 33 30.58 33 35 C34.32 35.33 35.64 35.66 37 36 C37 39.3 37 42.6 37 46 C32.38 46 27.76 46 23 46 C23 44.68 23 43.36 23 42 C21.35 42 19.7 42 18 42 C18 40.35 18 38.7 18 37 C15.03 37 12.06 37 9 37 C9 27.76 9 18.52 9 9 C6.03 9 3.06 9 0 9 C0 6.03 0 3.06 0 0 Z " fill="#171717" transform="translate(106,55)"/>
<path d="M0 0 C4.62 0 9.24 0 14 0 C14 1.32 14 2.64 14 4 C15.65 4 17.3 4 19 4 C19 5.65 19 7.3 19 9 C17.35 9 15.7 9 14 9 C14 10.32 14 11.64 14 13 C12.35 13 10.7 13 9 13 C9 14.65 9 16.3 9 18 C12.3 17.67 15.6 17.34 19 17 C19 17.66 19 18.32 19 19 C17.68 19 16.36 19 15 19 C15 19.66 15 20.32 15 21 C17.31 21.33 19.62 21.66 22 22 C22 22.33 22 22.66 22 23 C19.36 23 16.72 23 14 23 C14 24.32 14 25.64 14 27 C12.68 27 11.36 27 10 27 C10 25.68 10 24.36 10 23 C8.35 23 6.7 23 5 23 C5 28.94 5 34.88 5 41 C7.97 41 10.94 41 14 41 C14 42.98 14 44.96 14 47 C10.7 47 7.4 47 4 47 C4 45.35 4 43.7 4 42 C2.68 42 1.36 42 0 42 C0 34.08 0 26.16 0 18 C1.32 18 2.64 18 4 18 C4 16.68 4 15.36 4 14 C2.68 14 1.36 14 0 14 C0 9.38 0 4.76 0 0 Z " fill="#0D0D0D" transform="translate(50,120)"/>
<path d="M0 0 C2.97 0 5.94 0 9 0 C9 2.97 9 5.94 9 9 C7.68 9 6.36 9 5 9 C5 11.97 5 14.94 5 18 C6.32 18 7.64 18 9 18 C9 19.65 9 21.3 9 23 C7.68 23 6.36 23 5 23 C5 24.32 5 25.64 5 27 C6.32 27 7.64 27 9 27 C9 28.65 9 30.3 9 32 C10.65 32 12.3 32 14 32 C14 33.65 14 35.3 14 37 C11.03 37 8.06 37 5 37 C5 38.32 5 39.64 5 41 C1.7 41 -1.6 41 -5 41 C-5 39.68 -5 38.36 -5 37 C-6.32 37 -7.64 37 -9 37 C-9 39.97 -9 42.94 -9 46 C-10.65 46 -12.3 46 -14 46 C-14 44.35 -14 42.7 -14 41 C-15.65 41 -17.3 41 -19 41 C-19 39.68 -19 38.36 -19 37 C-20.32 37 -21.64 37 -23 37 C-23 39.97 -23 42.94 -23 46 C-26.3 46 -29.6 46 -33 46 C-33 42.7 -33 39.4 -33 36 C-28.38 36 -23.76 36 -19 36 C-19 33.36 -19 30.72 -19 28 C-20.32 27.67 -21.64 27.34 -23 27 C-21.35 27 -19.7 27 -18 27 C-18 29.97 -18 32.94 -18 36 C-10.74 36 -3.48 36 4 36 C4 27.09 4 18.18 4 9 C0.04 9 -3.92 9 -8 9 C-8 8.67 -8 8.34 -8 8 C-5.69 8 -3.38 8 -1 8 C-1 7.01 -1 6.02 -1 5 C-2.32 4.67 -3.64 4.34 -5 4 C-3.35 4 -1.7 4 0 4 C0 2.68 0 1.36 0 0 Z " fill="#545454" transform="translate(143,111)"/>
<path d="M0 0 C1.65 0 3.3 0 5 0 C5 2.97 5 5.94 5 9 C7.97 9 10.94 9 14 9 C14 11.97 14 14.94 14 18 C15.32 18 16.64 18 18 18 C18 16.68 18 15.36 18 14 C19.65 14 21.3 14 23 14 C23 15.65 23 17.3 23 19 C21.68 19 20.36 19 19 19 C19 21.97 19 24.94 19 28 C14.38 28 9.76 28 5 28 C5 29.32 5 30.64 5 32 C7.97 32 10.94 32 14 32 C14 35.3 14 38.6 14 42 C9.38 42 4.76 42 0 42 C0 40.35 0 38.7 0 37 C1.32 37 2.64 37 4 37 C4 35.68 4 34.36 4 33 C2.68 33 1.36 33 0 33 C0 31.35 0 29.7 0 28 C1.32 28 2.64 28 4 28 C4 26.35 4 24.7 4 23 C5.65 23 7.3 23 9 23 C9 21.68 9 20.36 9 19 C6.03 19 3.06 19 0 19 C0 17.35 0 15.7 0 14 C1.32 14 2.64 14 4 14 C4 12.35 4 10.7 4 9 C2.68 9 1.36 9 0 9 C0 6.03 0 3.06 0 0 Z " fill="#0D0D0D" transform="translate(13,64)"/>
<path d="M0 0 C10.56 0 21.12 0 32 0 C32 10.56 32 21.12 32 32 C21.44 32 10.88 32 0 32 C0 21.44 0 10.88 0 0 Z M4 4 C4 11.92 4 19.84 4 28 C11.92 28 19.84 28 28 28 C28 20.08 28 12.16 28 4 C20.08 4 12.16 4 4 4 Z " fill="#020202" transform="translate(13,134)"/>
<path d="M0 0 C10.56 0 21.12 0 32 0 C32 10.56 32 21.12 32 32 C21.44 32 10.88 32 0 32 C0 21.44 0 10.88 0 0 Z M4 4 C4 11.92 4 19.84 4 28 C11.92 28 19.84 28 28 28 C28 20.08 28 12.16 28 4 C20.08 4 12.16 4 4 4 Z " fill="#030303" transform="translate(134,13)"/>
<path d="M0 0 C10.56 0 21.12 0 32 0 C32 10.56 32 21.12 32 32 C21.44 32 10.88 32 0 32 C0 21.44 0 10.88 0 0 Z M4 4 C4 11.92 4 19.84 4 28 C11.92 28 19.84 28 28 28 C28 20.08 28 12.16 28 4 C20.08 4 12.16 4 4 4 Z " fill="#030303" transform="translate(13,13)"/>
<path d="M0 0 C1.36125 0.37125 1.36125 0.37125 2.75 0.75 C2.75 4.05 2.75 7.35 2.75 10.75 C4.07 10.75 5.39 10.75 6.75 10.75 C6.75 12.07 6.75 13.39 6.75 14.75 C10.05 14.75 13.35 14.75 16.75 14.75 C16.75 15.08 16.75 15.41 16.75 15.75 C13.78 15.75 10.81 15.75 7.75 15.75 C7.75 20.04 7.75 24.33 7.75 28.75 C3.79091662 29.40984723 0.75295662 29.87125692 -3.125 29.8125 C-3.90617187 29.80347656 -4.68734375 29.79445312 -5.4921875 29.78515625 C-6.07226562 29.77355469 -6.65234375 29.76195312 -7.25 29.75 C-7.25 27.77 -7.25 25.79 -7.25 23.75 C-5.93 23.42 -4.61 23.09 -3.25 22.75 C-3.25 22.09 -3.25 21.43 -3.25 20.75 C-12.16 20.42 -21.07 20.09 -30.25 19.75 C-30.25 16.78 -30.25 13.81 -30.25 10.75 C-28.6 10.75 -26.95 10.75 -25.25 10.75 C-25.25 12.07 -25.25 13.39 -25.25 14.75 C-20.63 14.75 -16.01 14.75 -11.25 14.75 C-11.25 16.07 -11.25 17.39 -11.25 18.75 C-10.29287109 18.84087891 -10.29287109 18.84087891 -9.31640625 18.93359375 C-8.49011719 19.01738281 -7.66382812 19.10117188 -6.8125 19.1875 C-5.57693359 19.30931641 -5.57693359 19.30931641 -4.31640625 19.43359375 C-2.25 19.75 -2.25 19.75 -1.25 20.75 C-1.20907063 23.08297433 -1.20758277 25.41705225 -1.25 27.75 C-0.26 27.75 0.73 27.75 1.75 27.75 C1.75 24.12 1.75 20.49 1.75 16.75 C2.245 17.74 2.245 17.74 2.75 18.75 C4.07 18.75 5.39 18.75 6.75 18.75 C6.75 17.76 6.75 16.77 6.75 15.75 C2.13 15.75 -2.49 15.75 -7.25 15.75 C-7.74326719 4.40485471 -7.74326719 4.40485471 -5.4375 1.34375 C-3.25 -0.25 -3.25 -0.25 0 0 Z " fill="#454545" transform="translate(117.25,109.25)"/>
<path d="M0 0 C3.3 0 6.6 0 10 0 C10 1.32 10 2.64 10 4 C11.65 4 13.3 4 15 4 C15 7.3 15 10.6 15 14 C13.35 14 11.7 14 10 14 C10 15.32 10 16.64 10 18 C7.03 18 4.06 18 1 18 C1 16.68 1 15.36 1 14 C-0.65 14 -2.3 14 -4 14 C-4 15.65 -4 17.3 -4 19 C-5.32 19 -6.64 19 -8 19 C-8 20.32 -8 21.64 -8 23 C-11.3 23 -14.6 23 -18 23 C-18 21.35 -18 19.7 -18 18 C-15.03 18 -12.06 18 -9 18 C-9 16.35 -9 14.7 -9 13 C-7.35 13 -5.7 13 -4 13 C-4 11.68 -4 10.36 -4 9 C-5.65 9 -7.3 9 -9 9 C-9 7.35 -9 5.7 -9 4 C-6.03 4 -3.06 4 0 4 C0 2.68 0 1.36 0 0 Z " fill="#5F5F5F" transform="translate(40,92)"/>
<path d="M0 0 C1.65 0 3.3 0 5 0 C5 1.65 5 3.3 5 5 C6.32 5 7.64 5 9 5 C9 14.24 9 23.48 9 33 C7.68 33 6.36 33 5 33 C5 30.03 5 27.06 5 24 C1.7 24 -1.6 24 -5 24 C-5 22.68 -5 21.36 -5 20 C-6.32 20 -7.64 20 -9 20 C-9 21.32 -9 22.64 -9 24 C-10.65 24 -12.3 24 -14 24 C-14 22.68 -14 21.36 -14 20 C-15.65 20 -17.3 20 -19 20 C-19 18.35 -19 16.7 -19 15 C-17.35 15 -15.7 15 -14 15 C-14 16.32 -14 17.64 -14 19 C-12.68 19 -11.36 19 -10 19 C-10 16.03 -10 13.06 -10 10 C-8.02 10 -6.04 10 -4 10 C-4 12.97 -4 15.94 -4 19 C-2.68 19 -1.36 19 0 19 C0 12.73 0 6.46 0 0 Z " fill="#6E6E6E" transform="translate(78,26)"/>
<path d="M0 0 C0.33 1.32 0.66 2.64 1 4 C2.32 4 3.64 4 5 4 C5 8.62 5 13.24 5 18 C2.03 18 -0.94 18 -4 18 C-4 16.68 -4 15.36 -4 14 C-5.32 14 -6.64 14 -8 14 C-8 16.64 -8 19.28 -8 22 C-6.68 22 -5.36 22 -4 22 C-4 23.65 -4 25.3 -4 27 C-1.03 27 1.94 27 5 27 C5 28.65 5 30.3 5 32 C2.03 32 -0.94 32 -4 32 C-4 30.68 -4 29.36 -4 28 C-5.65 28 -7.3 28 -9 28 C-9 23.38 -9 18.76 -9 14 C-11.97 14 -14.94 14 -18 14 C-18 15.32 -18 16.64 -18 18 C-19.65 18 -21.3 18 -23 18 C-23 15.03 -23 12.06 -23 9 C-18.38 9 -13.76 9 -9 9 C-9 7.35 -9 5.7 -9 4 C-6.03 4 -3.06 4 0 4 C0 2.68 0 1.36 0 0 Z " fill="#8C8C8C" transform="translate(161,97)"/>
<path d="M0 0 C4.62 0 9.24 0 14 0 C14 1.32 14 2.64 14 4 C15.65 4 17.3 4 19 4 C19 5.65 19 7.3 19 9 C23.29 9 27.58 9 32 9 C32 7.68 32 6.36 32 5 C33.65 5 35.3 5 37 5 C37 6.65 37 8.3 37 10 C35.68 10 34.36 10 33 10 C33 11.32 33 12.64 33 14 C34.32 14 35.64 14 37 14 C37 16.97 37 19.94 37 23 C35.68 23 34.36 23 33 23 C33 21.35 33 19.7 33 18 C31.35 18 29.7 18 28 18 C28 16.68 28 15.36 28 14 C26.35 14 24.7 14 23 14 C23 16.97 23 19.94 23 23 C21.68 23 20.36 23 19 23 C19 21.35 19 19.7 19 18 C17.35 18 15.7 18 14 18 C14 16.68 14 15.36 14 14 C12.35 14 10.7 14 9 14 C9 12.35 9 10.7 9 9 C10.65 9 12.3 9 14 9 C14 7.68 14 6.36 14 5 C9.38 5 4.76 5 0 5 C0 3.35 0 1.7 0 0 Z " fill="#595959" transform="translate(129,50)"/>
<path d="M0 0 C1.32 0 2.64 0 4 0 C4 1.65 4 3.3 4 5 C5.65 5 7.3 5 9 5 C9 6.32 9 7.64 9 9 C10.65 9 12.3 9 14 9 C14 7.68 14 6.36 14 5 C15.32 5 16.64 5 18 5 C18 6.32 18 7.64 18 9 C19.32 9 20.64 9 22 9 C22 13.29 22 17.58 22 22 C21.01 22 20.02 22 19 22 C19 20.68 19 19.36 19 18 C17.02 18 15.04 18 13 18 C13 16.68 13 15.36 13 14 C10.03 14 7.06 14 4 14 C4 15.32 4 16.64 4 18 C5.65 18 7.3 18 9 18 C9 19.65 9 21.3 9 23 C5.7 23 2.4 23 -1 23 C-1 24.32 -1 25.64 -1 27 C-2.32 27 -3.64 27 -5 27 C-5 24.03 -5 21.06 -5 18 C-3.35 18 -1.7 18 0 18 C0 12.06 0 6.12 0 0 Z " fill="#F5F5F5" transform="translate(55,41)"/>
<path d="M0 0 C2.97 0 5.94 0 9 0 C9 2.97 9 5.94 9 9 C7.68 9 6.36 9 5 9 C5 10.65 5 12.3 5 14 C6.65 14 8.3 14 10 14 C10 15.32 10 16.64 10 18 C15.94 18 21.88 18 28 18 C28 19.65 28 21.3 28 23 C22.06 23 16.12 23 10 23 C10 21.68 10 20.36 10 19 C8.35 19 6.7 19 5 19 C5 20.32 5 21.64 5 23 C3.35 23 1.7 23 0 23 C0 20.03 0 17.06 0 14 C-1.32 13.67 -2.64 13.34 -4 13 C-2.68 13 -1.36 13 0 13 C0 12.01 0 11.02 0 10 C-2.64 10 -5.28 10 -8 10 C-7.01 9.67 -6.02 9.34 -5 9 C-4.26676204 6.98491642 -4.26676204 6.98491642 -4 5 C-4 6.32 -4 7.64 -4 9 C-2.68 9 -1.36 9 0 9 C0 6.03 0 3.06 0 0 Z " fill="#333333" transform="translate(96,143)"/>
<path d="M0 0 C8.91 0 17.82 0 27 0 C27 1.32 27 2.64 27 4 C25.68 4 24.36 4 23 4 C23 5.98 23 7.96 23 10 C21.68 10 20.36 10 19 10 C19 10.99 19 11.98 19 13 C21.97 13 24.94 13 28 13 C28 14.98 28 16.96 28 19 C27.67 19 27.34 19 27 19 C27 17.35 27 15.7 27 14 C24.03 14 21.06 14 18 14 C18 15.32 18 16.64 18 18 C16.68 18 15.36 18 14 18 C14 15.03 14 12.06 14 9 C9.38 9 4.76 9 0 9 C0 6.03 0 3.06 0 0 Z " fill="#181818" transform="translate(18,50)"/>
<path d="M0 0 C1.65 0 3.3 0 5 0 C5 1.32 5 2.64 5 4 C6.65 4 8.3 4 10 4 C10 5.65 10 7.3 10 9 C11.32 9.33 12.64 9.66 14 10 C12.68 10 11.36 10 10 10 C9.67 11.32 9.34 12.64 9 14 C9 12.68 9 11.36 9 10 C6.36 10 3.72 10 1 10 C1 12.64 1 15.28 1 18 C2.32 18 3.64 18 5 18 C5 21.3 5 24.6 5 28 C2.03 28 -0.94 28 -4 28 C-4 24.7 -4 21.4 -4 18 C-5.65 18 -7.3 18 -9 18 C-9 16.68 -9 15.36 -9 14 C-7.68 14 -6.36 14 -5 14 C-5 12.35 -5 10.7 -5 9 C-6.32 9 -7.64 9 -9 9 C-9 7.68 -9 6.36 -9 5 C-11.97 5 -14.94 5 -18 5 C-18 4.67 -18 4.34 -18 4 C-13.38 4 -8.76 4 -4 4 C-4 5.65 -4 7.3 -4 9 C-2.68 9 -1.36 9 0 9 C0 6.03 0 3.06 0 0 Z " fill="#B4B4B4" transform="translate(152,64)"/>
<path d="M0 0 C1.32 0 2.64 0 4 0 C4 1.32 4 2.64 4 4 C8.62 4 13.24 4 18 4 C18 5.65 18 7.3 18 9 C19.65 9 21.3 9 23 9 C23 10.65 23 12.3 23 14 C21.35 14 19.7 14 18 14 C18 15.32 18 16.64 18 18 C15.03 18 12.06 18 9 18 C9 16.68 9 15.36 9 14 C7.35 14 5.7 14 4 14 C4 12.35 4 10.7 4 9 C1.03 9 -1.94 9 -5 9 C-5 7.68 -5 6.36 -5 5 C-3.35 5 -1.7 5 0 5 C0 3.35 0 1.7 0 0 Z " fill="#1E1E1E" transform="translate(83,13)"/>
<path d="M0 0 C1.65 0 3.3 0 5 0 C5 1.32 5 2.64 5 4 C6.32 4.33 7.64 4.66 9 5 C7.68 5 6.36 5 5 5 C5 6.32 5 7.64 5 9 C9.62 9 14.24 9 19 9 C19 15.27 19 21.54 19 28 C20.32 28 21.64 28 23 28 C23 29.32 23 30.64 23 32 C24.65 32 26.3 32 28 32 C28 30.68 28 29.36 28 28 C29.32 28 30.64 28 32 28 C32 30.97 32 33.94 32 37 C30.35 37 28.7 37 27 37 C27 39.97 27 42.94 27 46 C25.68 46 24.36 46 23 46 C23 41.71 23 37.42 23 33 C21.35 33 19.7 33 18 33 C18 31.35 18 29.7 18 28 C16.68 28 15.36 28 14 28 C14 23.38 14 18.76 14 14 C15.32 14 16.64 14 18 14 C18 12.68 18 11.36 18 10 C13.38 10 8.76 10 4 10 C4 8.35 4 6.7 4 5 C2.68 5 1.36 5 0 5 C0 3.35 0 1.7 0 0 Z " fill="#919191" transform="translate(106,50)"/>
<path d="M0 0 C1.65 0 3.3 0 5 0 C5 2.97 5 5.94 5 9 C6.32 9 7.64 9 9 9 C9.33 8.34 9.66 7.68 10 7 C10 7.66 10 8.32 10 9 C10.99 9 11.98 9 13 9 C13 8.34 13 7.68 13 7 C11.68 6.34 10.36 5.68 9 5 C12.3 4.67 15.6 4.34 19 4 C19 4.66 19 5.32 19 6 C17.68 6 16.36 6 15 6 C15 6.66 15 7.32 15 8 C17.31 8.33 19.62 8.66 22 9 C22 9.33 22 9.66 22 10 C19.36 10 16.72 10 14 10 C14 11.32 14 12.64 14 14 C12.68 14 11.36 14 10 14 C10 12.68 10 11.36 10 10 C8.35 10 6.7 10 5 10 C5 15.94 5 21.88 5 28 C7.97 28 10.94 28 14 28 C14 29.98 14 31.96 14 34 C10.7 34 7.4 34 4 34 C4 32.35 4 30.7 4 29 C2.68 29 1.36 29 0 29 C0 21.08 0 13.16 0 5 C1.32 5 2.64 5 4 5 C4 3.68 4 2.36 4 1 C2.68 0.67 1.36 0.34 0 0 Z " fill="#0B0B0B" transform="translate(50,133)"/>
<path d="M0 0 C7.57009346 6.05607477 7.57009346 6.05607477 9 9 C8.85955117 11.85579279 8.5679482 14.23770649 8 17 C7.814375 18.2375 7.62875 19.475 7.4375 20.75 C5.65520098 24.77954562 3.98262864 25.56272892 0.0703125 27.2734375 C-1.93678446 27.97781492 -3.92740315 28.52599803 -6 29 C-13.66509342 21.90517611 -13.66509342 21.90517611 -14.4140625 17.64453125 C-13.92337895 12.7292357 -12.15672302 8.40721661 -10 4 C-8.68 4 -7.36 4 -6 4 C-6 4.66 -6 5.32 -6 6 C-7.32 6 -8.64 6 -10 6 C-10 8.31 -10 10.62 -10 13 C-8.35 11.02 -6.7 9.04 -5 7 C-5 10.58912412 -5.66436554 11.10857029 -8 13.6875 C-8.556875 14.31011719 -9.11375 14.93273437 -9.6875 15.57421875 C-10.3371875 16.27998047 -10.3371875 16.27998047 -11 17 C-10.09636719 17.19335938 -9.19273438 17.38671875 -8.26171875 17.5859375 C-7.08222656 17.84632812 -5.90273437 18.10671875 -4.6875 18.375 C-2.92986328 18.75785156 -2.92986328 18.75785156 -1.13671875 19.1484375 C2 20 2 20 5 22 C5.165 20.741875 5.33 19.48375 5.5 18.1875 C5.63921875 17.12595703 5.63921875 17.12595703 5.78125 16.04296875 C6.053233 13.84528294 6.053233 13.84528294 6 11 C3.30325632 8.50301511 0.43198603 7.23932829 -3 6 C-3 5.34 -3 4.68 -3 4 C-0.69 4.66 1.62 5.32 4 6 C2.35 4.35 0.7 2.7 -1 1 C-0.67 0.67 -0.34 0.34 0 0 Z " fill="#B4B3B3" transform="translate(92,75)"/>
<path d="M0 0 C2.56784647 1.48664796 3.79969925 2.88768303 5.375 5.375 C-0.375 3.5 -0.375 3.5 -2.625 2.375 C-2.625 3.035 -2.625 3.695 -2.625 4.375 C-1.903125 4.478125 -1.18125 4.58125 -0.4375 4.6875 C2.67553492 5.44846409 4.80505998 6.4659017 7.375 8.375 C7.375 11.17284711 7.00304225 13.3540678 6.375 16.0625 C6.189375 16.87074219 6.00375 17.67898437 5.8125 18.51171875 C5.5959375 19.43404297 5.5959375 19.43404297 5.375 20.375 C4.65054688 20.17003906 3.92609375 19.96507813 3.1796875 19.75390625 C-1.73460129 18.38445777 -6.55841513 17.05967363 -11.625 16.375 C-9.645 13.735 -7.665 11.095 -5.625 8.375 C-6.264375 9.035 -6.90375 9.695 -7.5625 10.375 C-9.625 12.375 -9.625 12.375 -10.625 12.375 C-10.295 9.735 -9.965 7.095 -9.625 4.375 C-8.305 4.375 -6.985 4.375 -5.625 4.375 C-5.625 3.715 -5.625 3.055 -5.625 2.375 C-6.285 2.045 -6.945 1.715 -7.625 1.375 C-4.7130878 -0.12255485 -3.23898006 -0.77118573 0 0 Z " fill="#898989" transform="translate(91.625,76.625)"/>
<path d="M0 0 C1.65 0 3.3 0 5 0 C5 2.97 5 5.94 5 9 C7.97 9 10.94 9 14 9 C14 11.97 14 14.94 14 18 C15.32 18 16.64 18 18 18 C18 16.68 18 15.36 18 14 C19.65 14 21.3 14 23 14 C23 15.65 23 17.3 23 19 C21.68 19 20.36 19 19 19 C19 21.97 19 24.94 19 28 C18.67 28 18.34 28 18 28 C18 26.35 18 24.7 18 23 C16.68 23 15.36 23 14 23 C14 21.68 14 20.36 14 19 C9.38 19 4.76 19 0 19 C0 17.35 0 15.7 0 14 C1.32 14 2.64 14 4 14 C4 12.35 4 10.7 4 9 C2.68 9 1.36 9 0 9 C0 6.03 0 3.06 0 0 Z " fill="#AEAEAE" transform="translate(13,64)"/>
<path d="M0 0 C1.32 0 2.64 0 4 0 C4 1.65 4 3.3 4 5 C5.65 5 7.3 5 9 5 C9 3.35 9 1.7 9 0 C10.32 0 11.64 0 13 0 C13 3.3 13 6.6 13 10 C17.62 10 22.24 10 27 10 C27 10.99 27 11.98 27 13 C25.68 13 24.36 13 23 13 C22.67 15.97 22.34 18.94 22 22 C21.01 22 20.02 22 19 22 C18.67 19.69 18.34 17.38 18 15 C15.03 14.34 12.06 13.68 9 13 C9 11.68 9 10.36 9 9 C4.38 9 -0.24 9 -5 9 C-5 7.68 -5 6.36 -5 5 C-3.35 5 -1.7 5 0 5 C0 3.35 0 1.7 0 0 Z " fill="#070707" transform="translate(97,115)"/>
<path d="M0 0 C2.97 0 5.94 0 9 0 C9 2.97 9 5.94 9 9 C7.68 9 6.36 9 5 9 C5 11.97 5 14.94 5 18 C6.32 18 7.64 18 9 18 C9 19.65 9 21.3 9 23 C7.68 23 6.36 23 5 23 C5 24.32 5 25.64 5 27 C6.32 27 7.64 27 9 27 C9 28.65 9 30.3 9 32 C10.65 32 12.3 32 14 32 C14 33.32 14 34.64 14 36 C10.7 36 7.4 36 4 36 C4 27.09 4 18.18 4 9 C0.04 9 -3.92 9 -8 9 C-8 8.67 -8 8.34 -8 8 C-5.69 8 -3.38 8 -1 8 C-1 7.01 -1 6.02 -1 5 C-2.32 4.67 -3.64 4.34 -5 4 C-3.35 4 -1.7 4 0 4 C0 2.68 0 1.36 0 0 Z " fill="#2D2D2D" transform="translate(143,111)"/>
<path d="M0 0 C4.62 0 9.24 0 14 0 C14 4.62 14 9.24 14 14 C9.38 14 4.76 14 0 14 C0 9.38 0 4.76 0 0 Z " fill="#0B0B0B" transform="translate(22,143)"/>
<path d="M0 0 C4.62 0 9.24 0 14 0 C14 4.62 14 9.24 14 14 C9.38 14 4.76 14 0 14 C0 9.38 0 4.76 0 0 Z " fill="#DADADA" transform="translate(129,129)"/>
<path d="M0 0 C0.33 0 0.66 0 1 0 C1 4.29 1 8.58 1 13 C6.61 13 12.22 13 18 13 C18.33 11.68 18.66 10.36 19 9 C19 10.65 19 12.3 19 14 C14.38 14 9.76 14 5 14 C5 15.32 5 16.64 5 18 C6.65 18 8.3 18 10 18 C10 19.65 10 21.3 10 23 C3.73 23 -2.54 23 -9 23 C-9 18.38 -9 13.76 -9 9 C-7.35 9 -5.7 9 -4 9 C-4 11.97 -4 14.94 -4 18 C-2.68 18 -1.36 18 0 18 C0 12.06 0 6.12 0 0 Z " fill="#1E1E1E" transform="translate(87,41)"/>
<path d="M0 0 C0.33 0 0.66 0 1 0 C1 2.97 1 5.94 1 9 C2.65 9 4.3 9 6 9 C6 10.32 6 11.64 6 13 C7.32 13 8.64 13 10 13 C10 14.98 10 16.96 10 19 C8.35 19 6.7 19 5 19 C5 17.35 5 15.7 5 14 C3.68 14 2.36 14 1 14 C1 15.65 1 17.3 1 19 C-0.65 19 -2.3 19 -4 19 C-4 20.32 -4 21.64 -4 23 C-5.65 23 -7.3 23 -9 23 C-9 21.68 -9 20.36 -9 19 C-10.32 18.67 -11.64 18.34 -13 18 C-11.68 18 -10.36 18 -9 18 C-9 14.7 -9 11.4 -9 8 C-6.03 8 -3.06 8 0 8 C0 5.36 0 2.72 0 0 Z " fill="#BBBBBB" transform="translate(105,27)"/>
<path d="M0 0 C4.62 0 9.24 0 14 0 C14 4.62 14 9.24 14 14 C9.38 14 4.76 14 0 14 C0 9.38 0 4.76 0 0 Z " fill="#0B0B0B" transform="translate(143,22)"/>
<path d="M0 0 C4.62 0 9.24 0 14 0 C14 4.62 14 9.24 14 14 C9.38 14 4.76 14 0 14 C0 9.38 0 4.76 0 0 Z " fill="#0B0B0B" transform="translate(22,22)"/>
<path d="M0 0 C4.62 0 9.24 0 14 0 C14 4.29 14 8.58 14 13 C15.32 13.33 16.64 13.66 18 14 C18 17.3 18 20.6 18 24 C13.38 24 8.76 24 4 24 C4 22.68 4 21.36 4 20 C2.35 20 0.7 20 -1 20 C-1 18.35 -1 16.7 -1 15 C-0.67 16.32 -0.34 17.64 0 19 C2.64 19 5.28 19 8 19 C8 16.03 8 13.06 8 10 C9.65 10 11.3 10 13 10 C13 7.03 13 4.06 13 1 C11.68 1 10.36 1 9 1 C9 2.32 9 3.64 9 5 C7.35 5 5.7 5 4 5 C4 3.68 4 2.36 4 1 C2.68 0.67 1.36 0.34 0 0 Z " fill="#292929" transform="translate(125,77)"/>
<path d="M0 0 C2.64 0 5.28 0 8 0 C8 1.32 8 2.64 8 4 C9.65 4 11.3 4 13 4 C13 9.94 13 15.88 13 22 C11.68 22 10.36 22 9 22 C8.67 20.35 8.34 18.7 8 17 C6.68 17 5.36 17 4 17 C4 14.03 4 11.06 4 8 C2.68 8 1.36 8 0 8 C0 5.36 0 2.72 0 0 Z " fill="#0C0C0C" transform="translate(153,74)"/>
<path d="M0 0 C2.97 0 5.94 0 9 0 C9 7.59 9 15.18 9 23 C7.35 23 5.7 23 4 23 C4 20.03 4 17.06 4 14 C1.03 14 -1.94 14 -5 14 C-5 12.35 -5 10.7 -5 9 C-2.03 9 0.94 9 4 9 C4 7.68 4 6.36 4 5 C2.68 5 1.36 5 0 5 C0 3.35 0 1.7 0 0 Z " fill="#131313" transform="translate(55,13)"/>
<path d="M0 0 C4.29 0 8.58 0 13 0 C13 1.32 13 2.64 13 4 C14.65 4 16.3 4 18 4 C18 6.97 18 9.94 18 13 C16.68 13 15.36 13 14 13 C14 11.35 14 9.7 14 8 C12.35 8 10.7 8 9 8 C9 6.68 9 5.36 9 4 C7.35 4 5.7 4 4 4 C4 6.97 4 9.94 4 13 C2.68 13 1.36 13 0 13 C0 11.35 0 9.7 0 8 C-1.65 8 -3.3 8 -5 8 C-5 6.68 -5 5.36 -5 4 C-3.35 4 -1.7 4 0 4 C0 2.68 0 1.36 0 0 Z " fill="#070707" transform="translate(148,60)"/>
<path d="M0 0 C3.96 0 7.92 0 12 0 C12.33 0.99 12.66 1.98 13 3 C11.35 3 9.7 3 8 3 C8 4.98 8 6.96 8 9 C8.67546875 8.91621094 9.3509375 8.83242187 10.046875 8.74609375 C10.93890625 8.64425781 11.8309375 8.54242188 12.75 8.4375 C14.07257813 8.28087891 14.07257813 8.28087891 15.421875 8.12109375 C17.88432451 8.00543324 19.66538064 8.26361305 22 9 C22 11.64 22 14.28 22 17 C20.68 17 19.36 17 18 17 C18 15.68 18 14.36 18 13 C17.20335938 13.01160156 16.40671875 13.02320313 15.5859375 13.03515625 C5.06151142 13.12478032 5.06151142 13.12478032 0 12 C0 11.01 0 10.02 0 9 C1.32 9 2.64 9 4 9 C4 7.02 4 5.04 4 3 C2.35 3 0.7 3 -1 3 C-0.67 2.01 -0.34 1.02 0 0 Z " fill="#030303" transform="translate(102,130)"/>
<path d="M0 0 C2.97 0 5.94 0 9 0 C9 1.32 9 2.64 9 4 C12.3 4 15.6 4 19 4 C19 5.65 19 7.3 19 9 C11.08 9 3.16 9 -5 9 C-5 7.35 -5 5.7 -5 4 C-3.35 4 -1.7 4 0 4 C0 2.68 0 1.36 0 0 Z " fill="#252525" transform="translate(27,120)"/>
<path d="M0 0 C2.97 0 5.94 0 9 0 C9 1.65 9 3.3 9 5 C7.68 5 6.36 5 5 5 C5 10.94 5 16.88 5 23 C2.03 23 -0.94 23 -4 23 C-4 21.68 -4 20.36 -4 19 C-2.68 19 -1.36 19 0 19 C0 12.73 0 6.46 0 0 Z " fill="#070707" transform="translate(50,36)"/>
<path d="M0 0 C1.65 0 3.3 0 5 0 C5 1.65 5 3.3 5 5 C3.68 5 2.36 5 1 5 C1 5.99 1 6.98 1 8 C2.98 8 4.96 8 7 8 C6.01 8.495 6.01 8.495 5 9 C5 11.97 5 14.94 5 18 C4.67 18 4.34 18 4 18 C4 15.03 4 12.06 4 9 C1.03 9 -1.94 9 -5 9 C-5 11.97 -5 14.94 -5 18 C-6.32 18 -7.64 18 -9 18 C-9 16.68 -9 15.36 -9 14 C-10.65 14 -12.3 14 -14 14 C-14 12.35 -14 10.7 -14 9 C-12.35 9 -10.7 9 -9 9 C-9 7.35 -9 5.7 -9 4 C-6.03 4 -3.06 4 0 4 C0 2.68 0 1.36 0 0 Z " fill="#EEEEEE" transform="translate(101,134)"/>
<path d="M0 0 C1.32 0 2.64 0 4 0 C4 2.97 4 5.94 4 9 C5.65 9 7.3 9 9 9 C9 11.97 9 14.94 9 18 C6.03 18 3.06 18 0 18 C0 14.7 0 11.4 0 8 C-1.65 8 -3.3 8 -5 8 C-5 6.68 -5 5.36 -5 4 C-3.35 4 -1.7 4 0 4 C0 2.68 0 1.36 0 0 Z " fill="#F9F9F9" transform="translate(148,74)"/>
<path d="M0 0 C1.65 0 3.3 0 5 0 C5 1.65 5 3.3 5 5 C6.32 5 7.64 5 9 5 C9 8.3 9 11.6 9 15 C7.68 15 6.36 15 5 15 C5 16.32 5 17.64 5 19 C3.35 19 1.7 19 0 19 C0 12.73 0 6.46 0 0 Z " fill="#161616" transform="translate(78,26)"/>
<path d="M0 0 C4.62 0 9.24 0 14 0 C13.67 4.29 13.34 8.58 13 13 C10.36 13 7.72 13 5 13 C5 11.68 5 10.36 5 9 C3.35 8.67 1.7 8.34 0 8 C0.33 7.01 0.66 6.02 1 5 C2.32 5 3.64 5 5 5 C5 4.34 5 3.68 5 3 C3.35 3 1.7 3 0 3 C0 2.01 0 1.02 0 0 Z " fill="#0D0D0D" transform="translate(64,134)"/>
<path d="M0 0 C2.97 0 5.94 0 9 0 C9 2.97 9 5.94 9 9 C10.32 9 11.64 9 13 9 C13 7.35 13 5.7 13 4 C14.65 4 16.3 4 18 4 C18 5.98 18 7.96 18 10 C16.68 10 15.36 10 14 10 C14 11.32 14 12.64 14 14 C12.02 14 10.04 14 8 14 C8 12.68 8 11.36 8 10 C6.68 10 5.36 10 4 10 C4 8.02 4 6.04 4 4 C2.68 4 1.36 4 0 4 C0 2.68 0 1.36 0 0 Z " fill="#4A4A4A" transform="translate(111,36)"/>
<path d="M0 0 C1.32 0 2.64 0 4 0 C4 1.65 4 3.3 4 5 C8.62 5 13.24 5 18 5 C18 6.32 18 7.64 18 9 C16.35 9 14.7 9 13 9 C13 13.29 13 17.58 13 22 C12.01 22 11.02 22 10 22 C10 17.38 10 12.76 10 8 C6.7 8 3.4 8 0 8 C0 5.36 0 2.72 0 0 Z " fill="#040404" transform="translate(106,55)"/>
<path d="M0 0 C5.94 0 11.88 0 18 0 C18 2.64 18 5.28 18 8 C13.15032365 8.09509169 8.76487164 7.95297433 4 7 C1.76832815 7.36856864 1.76832815 7.36856864 0 8 C0 5.36 0 2.72 0 0 Z " fill="#010101" transform="translate(83,130)"/>
<path d="M0 0 C3.3 0 6.6 0 10 0 C10.33 2.31 10.66 4.62 11 7 C10.67 6.34 10.34 5.68 10 5 C7.03 5 4.06 5 1 5 C1 6.32 1 7.64 1 9 C3.97 9 6.94 9 10 9 C10 10.65 10 12.3 10 14 C6.7 14 3.4 14 0 14 C0 11.03 0 8.06 0 5 C-1.32 4.67 -2.64 4.34 -4 4 C-2.68 4 -1.36 4 0 4 C0 2.68 0 1.36 0 0 Z " fill="#1B1B1B" transform="translate(54,64)"/>
<path d="M0 0 C0.33 0 0.66 0 1 0 C1 2.97 1 5.94 1 9 C5.62 9 10.24 9 15 9 C15 11.97 15 14.94 15 18 C16.32 18 17.64 18 19 18 C19 16.68 19 15.36 19 14 C21.97 14 24.94 14 28 14 C28 15.65 28 17.3 28 19 C25.03 19 22.06 19 19 19 C19 20.32 19 21.64 19 23 C17.35 23 15.7 23 14 23 C14 21.68 14 20.36 14 19 C11.03 19 8.06 19 5 19 C5 18.67 5 18.34 5 18 C7.97 18 10.94 18 14 18 C14 15.36 14 12.72 14 10 C9.38 10 4.76 10 0 10 C0 6.7 0 3.4 0 0 Z " fill="#A3A3A3" transform="translate(17,50)"/>
<path d="M0 0 C1.65 0 3.3 0 5 0 C5 1.65 5 3.3 5 5 C3.35 5 1.7 5 0 5 C0 6.65 0 8.3 0 10 C-1.32 10 -2.64 10 -4 10 C-4 11.32 -4 12.64 -4 14 C-7.3 14 -10.6 14 -14 14 C-14 12.35 -14 10.7 -14 9 C-11.03 9 -8.06 9 -5 9 C-5 7.35 -5 5.7 -5 4 C-3.35 4 -1.7 4 0 4 C0 2.68 0 1.36 0 0 Z " fill="#555555" transform="translate(36,101)"/>
<path d="M0 0 C8.91 0 17.82 0 27 0 C27 1.32 27 2.64 27 4 C18.09 4 9.18 4 0 4 C0 2.68 0 1.36 0 0 Z " fill="#111111" transform="translate(18,50)"/>
<path d="M0 0 C1.65 0 3.3 0 5 0 C5 1.65 5 3.3 5 5 C9.29 5 13.58 5 18 5 C18 6.32 18 7.64 18 9 C12.06 9 6.12 9 0 9 C0 6.03 0 3.06 0 0 Z " fill="#F4F4F4" transform="translate(87,120)"/>
<path d="M0 0 C3.3 0 6.6 0 10 0 C10 4.62 10 9.24 10 14 C10.99 14 11.98 14 13 14 C13 9.71 13 5.42 13 1 C13.33 1 13.66 1 14 1 C14 5.62 14 10.24 14 15 C15.32 15 16.64 15 18 15 C18 16.65 18 18.3 18 20 C16.68 20 15.36 20 14 20 C14 22.31 14 24.62 14 27 C13.67 27 13.34 27 13 27 C13 24.69 13 22.38 13 20 C12.01 20 11.02 20 10 20 C9.67 21.32 9.34 22.64 9 24 C9 16.41 9 8.82 9 1 C6.03 1 3.06 1 0 1 C0 0.67 0 0.34 0 0 Z " fill="#1E1E1E" transform="translate(106,63)"/>
<path d="M0 0 C1.65 0 3.3 0 5 0 C5 4.62 5 9.24 5 14 C3.35 14 1.7 14 0 14 C0 12.68 0 11.36 0 10 C-1.65 10 -3.3 10 -5 10 C-5 8.35 -5 6.7 -5 5 C-3.35 5 -1.7 5 0 5 C0 3.35 0 1.7 0 0 Z " fill="#080808" transform="translate(152,152)"/>
<path d="M0 0 C1.65 0 3.3 0 5 0 C5 1.32 5 2.64 5 4 C5.99 4 6.98 4 8 4 C8 2.68 8 1.36 8 0 C9.98 0 11.96 0 14 0 C14 1.65 14 3.3 14 5 C12.35 5 10.7 5 9 5 C9 6.32 9 7.64 9 9 C6.03 9 3.06 9 0 9 C0 6.03 0 3.06 0 0 Z " fill="#2A2A2A" transform="translate(92,22)"/>
<path d="M0 0 C1.32 0 2.64 0 4 0 C4 5.94 4 11.88 4 18 C2.68 18 1.36 18 0 18 C0 15.03 0 12.06 0 9 C-1.65 9 -3.3 9 -5 9 C-5 7.68 -5 6.36 -5 5 C-3.68 4.67 -2.36 4.34 -1 4 C-0.67 2.68 -0.34 1.36 0 0 Z " fill="#FDFDFD" transform="translate(83,41)"/>
<path d="M0 0 C1.32 0 2.64 0 4 0 C4 2.97 4 5.94 4 9 C2.35 9 0.7 9 -1 9 C-1 11.97 -1 14.94 -1 18 C-2.32 18 -3.64 18 -5 18 C-5 13.71 -5 9.42 -5 5 C-3.35 5 -1.7 5 0 5 C0 3.35 0 1.7 0 0 Z " fill="#FBFBFB" transform="translate(134,78)"/>
<path d="M0 0 C2.97 0 5.94 0 9 0 C9 1.32 9 2.64 9 4 C7.35 4 5.7 4 4 4 C4 8.62 4 13.24 4 18 C2.68 18 1.36 18 0 18 C0 12.06 0 6.12 0 0 Z " fill="#010101" transform="translate(69,13)"/>
<path d="M0 0 C1.32 0 2.64 0 4 0 C4 3.3 4 6.6 4 10 C8.29 10 12.58 10 17 10 C17 10.99 17 11.98 17 13 C11.39 13 5.78 13 0 13 C0 8.71 0 4.42 0 0 Z " fill="#0C0C0C" transform="translate(125,64)"/>
<path d="M0 0 C1.65 0 3.3 0 5 0 C5 1.32 5 2.64 5 4 C6.65 4 8.3 4 10 4 C10 5.65 10 7.3 10 9 C8.35 9 6.7 9 5 9 C4.67 9.99 4.34 10.98 4 12 C4 11.34 4 10.68 4 10 C3.01 10 2.02 10 1 10 C0.67 10.66 0.34 11.32 0 12 C0 11.34 0 10.68 0 10 C-1.32 10 -2.64 10 -4 10 C-4 9.34 -4 8.68 -4 8 C-2.68 8 -1.36 8 0 8 C-0.185625 7.4225 -0.37125 6.845 -0.5625 6.25 C-1.04023546 3.79307475 -0.75729364 2.35602466 0 0 Z " fill="#212121" transform="translate(59,120)"/>
<path d="M0 0 C1.32 0 2.64 0 4 0 C4 2.64 4 5.28 4 8 C2.68 8 1.36 8 0 8 C0 9.65 0 11.3 0 13 C-2.97 13 -5.94 13 -9 13 C-9 11.68 -9 10.36 -9 9 C-7.35 9 -5.7 9 -4 9 C-4 7.35 -4 5.7 -4 4 C-2.68 4 -1.36 4 0 4 C0 2.68 0 1.36 0 0 Z " fill="#090909" transform="translate(50,97)"/>
<path d="M0 0 C2.64 0 5.28 0 8 0 C8 2.64 8 5.28 8 8 C3.71 8 -0.58 8 -5 8 C-5 6.68 -5 5.36 -5 4 C-3.35 4 -1.7 4 0 4 C0 2.68 0 1.36 0 0 Z " fill="#0B0B0B" transform="translate(18,97)"/>
<path d="M0 0 C0.33 0 0.66 0 1 0 C1 2.31 1 4.62 1 7 C3.64 7 6.28 7 9 7 C9 4.69 9 2.38 9 0 C9.33 0 9.66 0 10 0 C10 3.96 10 7.92 10 12 C5.38 12 0.76 12 -4 12 C-4 10.35 -4 8.7 -4 7 C-2.68 7 -1.36 7 0 7 C0 4.69 0 2.38 0 0 Z " fill="#181818" transform="translate(147,24)"/>
<path d="M0 0 C0.33 0 0.66 0 1 0 C1 5.94 1 11.88 1 18 C3.97 18 6.94 18 10 18 C10 19.98 10 21.96 10 24 C6.7 24 3.4 24 0 24 C0 22.35 0 20.7 0 19 C-1.32 18.67 -2.64 18.34 -4 18 C-2.68 18 -1.36 18 0 18 C0 12.06 0 6.12 0 0 Z " fill="#858585" transform="translate(54,143)"/>
<path d="M0 0 C2.97 0 5.94 0 9 0 C9 1.32 9 2.64 9 4 C10.65 4 12.3 4 14 4 C14 5.65 14 7.3 14 9 C10.67465243 10.10844919 8.37817425 9.84454356 5 9 C5 7.35 5 5.7 5 4 C3.35 4 1.7 4 0 4 C0 2.68 0 1.36 0 0 Z " fill="#131313" transform="translate(59,55)"/>
<path d="M0 0 C1.65 0 3.3 0 5 0 C5 2.97 5 5.94 5 9 C0.38 9 -4.24 9 -9 9 C-9 7.68 -9 6.36 -9 5 C-6.03 5 -3.06 5 0 5 C0 3.35 0 1.7 0 0 Z " fill="#020202" transform="translate(138,157)"/>
<path d="M0 0 C3.96 0 7.92 0 12 0 C12.33 0.99 12.66 1.98 13 3 C11.35 3 9.7 3 8 3 C8 4.98 8 6.96 8 9 C9.65 9 11.3 9 13 9 C12.67 9.99 12.34 10.98 12 12 C9.36 12 6.72 12 4 12 C4 9.03 4 6.06 4 3 C2.35 3 0.7 3 -1 3 C-0.67 2.01 -0.34 1.02 0 0 Z " fill="#030303" transform="translate(51,130)"/>
<path d="M0 0 C4.62 0 9.24 0 14 0 C14 1.32 14 2.64 14 4 C11.03 4 8.06 4 5 4 C5 5.65 5 7.3 5 9 C3.35 9 1.7 9 0 9 C0 6.03 0 3.06 0 0 Z " fill="#F3F3F3" transform="translate(138,106)"/>
<path d="M0 0 C4.62 0 9.24 0 14 0 C14 1.32 14 2.64 14 4 C14.63808594 4.06058594 15.27617188 4.12117187 15.93359375 4.18359375 C16.75988281 4.26738281 17.58617188 4.35117188 18.4375 4.4375 C19.67306641 4.55931641 19.67306641 4.55931641 20.93359375 4.68359375 C23 5 23 5 24 6 C24.04092937 8.33297433 24.04241723 10.66705225 24 13 C24.99 13 25.98 13 27 13 C27 13.66 27 14.32 27 15 C24.03 15 21.06 15 18 15 C18 13.02 18 11.04 18 9 C19.32 8.67 20.64 8.34 22 8 C22 7.34 22 6.68 22 6 C20.88625 6.020625 19.7725 6.04125 18.625 6.0625 C15 6 15 6 13 5 C13 3.68 13 2.36 13 1 C8.71 1 4.42 1 0 1 C0 0.67 0 0.34 0 0 Z " fill="#737373" transform="translate(92,124)"/>
<path d="M0 0 C1.32 0 2.64 0 4 0 C4 1.65 4 3.3 4 5 C5.32 5 6.64 5 8 5 C8 6.32 8 7.64 8 9 C9.65 9 11.3 9 13 9 C13.33 7.68 13.66 6.36 14 5 C14 7.31 14 9.62 14 12 C11.525 11.01 11.525 11.01 9 10 C9 10.66 9 11.32 9 12 C8.34 12 7.68 12 7 12 C7 11.34 7 10.68 7 10 C4.69 10 2.38 10 0 10 C0 6.7 0 3.4 0 0 Z " fill="#131313" transform="translate(88,41)"/>
<path d="M0 0 C4.62 0 9.24 0 14 0 C13.67 2.64 13.34 5.28 13 8 C12.01 8 11.02 8 10 8 C10 6.68 10 5.36 10 4 C8.02 4 6.04 4 4 4 C4 5.32 4 6.64 4 8 C3.01 8 2.02 8 1 8 C0.67 5.36 0.34 2.72 0 0 Z " fill="#000000" transform="translate(87,18)"/>
<path d="M0 0 C2.64 0 5.28 0 8 0 C8 2.97 8 5.94 8 9 C5.36 9.33 2.72 9.66 0 10 C0 6.7 0 3.4 0 0 Z " fill="#0C0C0C" transform="translate(97,143)"/>
<path d="M0 0 C1.32 0 2.64 0 4 0 C4 4.62 4 9.24 4 14 C1.03 14 -1.94 14 -5 14 C-5 12.68 -5 11.36 -5 10 C-3.35 10 -1.7 10 0 10 C0 6.7 0 3.4 0 0 Z " fill="#030303" transform="translate(162,101)"/>
<path d="M0 0 C3.3 0 6.6 0 10 0 C10 1.65 10 3.3 10 5 C7.03 5 4.06 5 1 5 C1 6.65 1 8.3 1 10 C-0.65 10 -2.3 10 -4 10 C-4 8.35 -4 6.7 -4 5 C-2.68 5 -1.36 5 0 5 C0 3.35 0 1.7 0 0 Z " fill="#4A4A4A" transform="translate(54,82)"/>
<path d="M0 0 C1.65 0 3.3 0 5 0 C4.67 1.65 4.34 3.3 4 5 C3.01 5 2.02 5 1 5 C1 6.32 1 7.64 1 9 C-2.3 9 -5.6 9 -9 9 C-9 7.35 -9 5.7 -9 4 C-6.03 4 -3.06 4 0 4 C0 2.68 0 1.36 0 0 Z " fill="#999999" transform="translate(40,92)"/>
<path d="M0 0 C5.94 0 11.88 0 18 0 C18 1.32 18 2.64 18 4 C12.06 4 6.12 4 0 4 C0 2.68 0 1.36 0 0 Z " fill="#010101" transform="translate(106,162)"/>
<path d="M0 0 C5.94 0 11.88 0 18 0 C18 1.32 18 2.64 18 4 C12.06 4 6.12 4 0 4 C0 2.68 0 1.36 0 0 Z " fill="#030303" transform="translate(69,162)"/>
<path d="M0 0 C2.64 0 5.28 0 8 0 C8 2.97 8 5.94 8 9 C5.36 9 2.72 9 0 9 C0 6.03 0 3.06 0 0 Z " fill="#010101" transform="translate(111,148)"/>
<path d="M0 0 C0.33 1.32 0.66 2.64 1 4 C2.32 4 3.64 4 5 4 C5 2.68 5 1.36 5 0 C6.65 0 8.3 0 10 0 C10 1.32 10 2.64 10 4 C12.64 4 15.28 4 18 4 C18 2.68 18 1.36 18 0 C19.98 0 21.96 0 24 0 C24 1.65 24 3.3 24 5 C16.08 5 8.16 5 0 5 C0 3.35 0 1.7 0 0 Z " fill="#979797" transform="translate(59,143)"/>
<path d="M0 0 C1.65 0 3.3 0 5 0 C5 2.97 5 5.94 5 9 C6.32 9 7.64 9 9 9 C9.33 8.34 9.66 7.68 10 7 C10 7.66 10 8.32 10 9 C10.99 9 11.98 9 13 9 C13 8.34 13 7.68 13 7 C11.68 6.34 10.36 5.68 9 5 C12.3 4.67 15.6 4.34 19 4 C19 4.66 19 5.32 19 6 C17.68 6 16.36 6 15 6 C15 6.66 15 7.32 15 8 C17.31 8.33 19.62 8.66 22 9 C22 9.33 22 9.66 22 10 C19.36 10 16.72 10 14 10 C14 11.32 14 12.64 14 14 C12.68 14 11.36 14 10 14 C10 12.68 10 11.36 10 10 C8.02 10 6.04 10 4 10 C4 8.68 4 7.36 4 6 C2.68 5.67 1.36 5.34 0 5 C1.32 5 2.64 5 4 5 C4 3.68 4 2.36 4 1 C2.68 0.67 1.36 0.34 0 0 Z " fill="#313131" transform="translate(50,133)"/>
<path d="M0 0 C2.97 0 5.94 0 9 0 C9 4.29 9 8.58 9 13 C7.68 13 6.36 13 5 13 C5 10.03 5 7.06 5 4 C3.35 4 1.7 4 0 4 C0 2.68 0 1.36 0 0 Z " fill="#070707" transform="translate(22,69)"/>
<path d="M0 0 C1.65 0 3.3 0 5 0 C5 2.97 5 5.94 5 9 C5.99 9.33 6.98 9.66 8 10 C7.01 10 6.02 10 5 10 C5 12.97 5 15.94 5 19 C4.67 19 4.34 19 4 19 C4 16.03 4 13.06 4 10 C1.03 10 -1.94 10 -5 10 C-5 8.35 -5 6.7 -5 5 C-2.03 5 0.94 5 4 5 C4 3.68 4 2.36 4 1 C2.68 0.67 1.36 0.34 0 0 Z " fill="#404040" transform="translate(55,17)"/>
<path d="M0 0 C4.62 0 9.24 0 14 0 C12.68 0.33 11.36 0.66 10 1 C10 1.99 10 2.98 10 4 C10.66 4.33 11.32 4.66 12 5 C11.34 5 10.68 5 10 5 C10 7.31 10 9.62 10 12 C9.67 12 9.34 12 9 12 C9 9.69 9 7.38 9 5 C6.36 5 3.72 5 1 5 C1 7.31 1 9.62 1 12 C0.67 12 0.34 12 0 12 C0 8.04 0 4.08 0 0 Z " fill="#1D1D1D" transform="translate(22,143)"/>
<path d="M0 0 C4.62 0 9.24 0 14 0 C14 1.65 14 3.3 14 5 C9.38 5 4.76 5 0 5 C0 3.35 0 1.7 0 0 Z " fill="#272727" transform="translate(36,115)"/>
<path d="M0 0 C1.65 0 3.3 0 5 0 C5 4.62 5 9.24 5 14 C3.35 14 1.7 14 0 14 C0 9.38 0 4.76 0 0 Z " fill="#2B2B2B" transform="translate(124,101)"/>
<path d="M0 0 C1.65 0 3.3 0 5 0 C5 1.65 5 3.3 5 5 C3.68 5 2.36 5 1 5 C1 7.97 1 10.94 1 14 C-0.65 14 -2.3 14 -4 14 C-4 11.03 -4 8.06 -4 5 C-2.68 5 -1.36 5 0 5 C0 3.35 0 1.7 0 0 Z " fill="#050505" transform="translate(110,22)"/>
<path d="M0 0 C0.66 0 1.32 0 2 0 C2.33 3.96 2.66 7.92 3 12 C-0.63 11.67 -4.26 11.34 -8 11 C-6.50260417 9.01432292 -5.00520833 7.02864583 -3.5078125 5.04296875 C-2.29185219 3.39543703 -1.13583859 1.70375789 0 0 Z " fill="#0C0C0C" transform="translate(88,82)"/>
<path d="M0 0 C1.23102992 3.69308976 0.87175152 6.88050712 0.5625 10.6875 C0.51029297 11.38939453 0.45808594 12.09128906 0.40429688 12.81445312 C0.27492135 14.54338054 0.13817469 16.27175355 0 18 C-1.32 18 -2.64 18 -4 18 C-4 12.72 -4 7.44 -4 2 C-2.68 2 -1.36 2 0 2 C0 1.34 0 0.68 0 0 Z " fill="#080808" transform="translate(17,135)"/>
<path d="M0 0 C2.00720923 0.28674418 4.0085944 0.61866701 6 1 C6 4.3 6 7.6 6 11 C4.35 11 2.7 11 1 11 C1 9.35 1 7.7 1 6 C-0.32 6 -1.64 6 -3 6 C-1.125 1.125 -1.125 1.125 0 0 Z " fill="#2E2E2E" transform="translate(114,109)"/>
<path d="M0 0 C0.33 0 0.66 0 1 0 C1 2.97 1 5.94 1 9 C3.97 9 6.94 9 10 9 C10 12.3 10 15.6 10 19 C5.38 19 0.76 19 -4 19 C-4 18.67 -4 18.34 -4 18 C0.29 18 4.58 18 9 18 C9 15.36 9 12.72 9 10 C6.36 10 3.72 10 1 10 C0.67 11.32 0.34 12.64 0 14 C0 12.68 0 11.36 0 10 C-1.32 10 -2.64 10 -4 10 C-4 8.35 -4 6.7 -4 5 C-2.68 5 -1.36 5 0 5 C0 3.35 0 1.7 0 0 Z " fill="#4B4B4B" transform="translate(17,87)"/>
<path d="M0 0 C2.97 0 5.94 0 9 0 C9 2.97 9 5.94 9 9 C7.68 9 6.36 9 5 9 C5 7.68 5 6.36 5 5 C3.35 5 1.7 5 0 5 C0 3.35 0 1.7 0 0 Z " fill="#EDEDED" transform="translate(152,101)"/>
<path d="M0 0 C1.65 0 3.3 0 5 0 C5 1.65 5 3.3 5 5 C6.32 5 7.64 5 9 5 C9 6.32 9 7.64 9 9 C6.03 9 3.06 9 0 9 C0 6.03 0 3.06 0 0 Z " fill="#F2F2F2" transform="translate(152,64)"/>
<path d="M0 0 C2.97 0 5.94 0 9 0 C9 2.97 9 5.94 9 9 C7.35 9 5.7 9 4 9 C4 7.35 4 5.7 4 4 C2.68 4 1.36 4 0 4 C0 2.68 0 1.36 0 0 Z " fill="#080808" transform="translate(111,36)"/>
<path d="M0 0 C2.97 0 5.94 0 9 0 C9 2.64 9 5.28 9 8 C6.36 8 3.72 8 1 8 C0.67 5.36 0.34 2.72 0 0 Z " fill="#030303" transform="translate(143,111)"/>
<path d="M0 0 C2.97 0 5.94 0 9 0 C9 1.32 9 2.64 9 4 C10.32 4.33 11.64 4.66 13 5 C10 7 10 7 8 8 C8 7.01 8 6.02 8 5 C3.71 5 -0.58 5 -5 5 C-5 4.67 -5 4.34 -5 4 C-3.35 4 -1.7 4 0 4 C0 2.68 0 1.36 0 0 Z " fill="#242424" transform="translate(134,69)"/>
<path d="M0 0 C5.67276511 -0.29341888 8.99067246 -0.00559652 14 3 C11.3144406 5.6855594 8.62378672 6.06049974 5 7 C0 1.125 0 1.125 0 0 Z " fill="#0F0E0E" transform="translate(81,95)"/>
<path d="M0 0 C3.96 0 7.92 0 12 0 C12.33 0.99 12.66 1.98 13 3 C11.35 3 9.7 3 8 3 C8 4.65 8 6.3 8 8 C6.68 8 5.36 8 4 8 C4 6.35 4 4.7 4 3 C2.35 3 0.7 3 -1 3 C-0.67 2.01 -0.34 1.02 0 0 Z " fill="#000000" transform="translate(102,130)"/>
<path d="M0 0 C1.32 0 2.64 0 4 0 C4 1.65 4 3.3 4 5 C5.65 5 7.3 5 9 5 C9 6.32 9 7.64 9 9 C6.03 9 3.06 9 0 9 C0 6.03 0 3.06 0 0 Z " fill="#F6F6F6" transform="translate(111,115)"/>
<path d="M0 0 C1.32 0 2.64 0 4 0 C4 2.97 4 5.94 4 9 C1.03 9 -1.94 9 -5 9 C-5 7.68 -5 6.36 -5 5 C-3.35 5 -1.7 5 0 5 C0 3.35 0 1.7 0 0 Z " fill="#010101" transform="translate(55,106)"/>
<path d="M0 0 C1.32 0 2.64 0 4 0 C4 2.97 4 5.94 4 9 C1.03 9 -1.94 9 -5 9 C-5 7.68 -5 6.36 -5 5 C-3.35 5 -1.7 5 0 5 C0 3.35 0 1.7 0 0 Z " fill="#F9F9F9" transform="translate(139,92)"/>
<path d="M0 0 C1.32 0 2.64 0 4 0 C4 4.62 4 9.24 4 14 C2.68 14 1.36 14 0 14 C0 9.38 0 4.76 0 0 Z " fill="#FBFBFB" transform="translate(120,64)"/>
<path d="M0 0 C4.62 0 9.24 0 14 0 C14 1.32 14 2.64 14 4 C9.38 4 4.76 4 0 4 C0 2.68 0 1.36 0 0 Z " fill="#080808" transform="translate(129,50)"/>
<path d="M0 0 C1.32 0 2.64 0 4 0 C4 4.62 4 9.24 4 14 C2.68 14 1.36 14 0 14 C0 9.38 0 4.76 0 0 Z " fill="#070707" transform="translate(120,22)"/>
<path d="M0 0 C2.64 0 5.28 0 8 0 C8 2.97 8 5.94 8 9 C6.68 9 5.36 9 4 9 C4 7.35 4 5.7 4 4 C2.68 4 1.36 4 0 4 C0 2.68 0 1.36 0 0 Z " fill="#090909" transform="translate(125,148)"/>
<path d="M0 0 C1.32 0 2.64 0 4 0 C4 1.32 4 2.64 4 4 C5.65 4 7.3 4 9 4 C9 5.32 9 6.64 9 8 C6.03 8 3.06 8 0 8 C0 5.36 0 2.72 0 0 Z " fill="#0E0E0E" transform="translate(148,139)"/>
<path d="M0 0 C0.33 0 0.66 0 1 0 C1 2.97 1 5.94 1 9 C2.32 9 3.64 9 5 9 C5.33 7.68 5.66 6.36 6 5 C6 6.65 6 8.3 6 10 C4.35 10 2.7 10 1 10 C1 11.32 1 12.64 1 14 C-0.65 14 -2.3 14 -4 14 C-4 12.68 -4 11.36 -4 10 C-5.65 10 -7.3 10 -9 10 C-9 8.35 -9 6.7 -9 5 C-8.67 6.32 -8.34 7.64 -8 9 C-5.36 9 -2.72 9 0 9 C0 6.03 0 3.06 0 0 Z " fill="#606060" transform="translate(133,87)"/>
<path d="M0 0 C4.29 0 8.58 0 13 0 C13 1.32 13 2.64 13 4 C8.71 4 4.42 4 0 4 C0 2.68 0 1.36 0 0 Z " fill="#080808" transform="translate(148,92)"/>
<path d="M0 0 C1.32 0 2.64 0 4 0 C4 4.29 4 8.58 4 13 C2.68 13 1.36 13 0 13 C0 8.71 0 4.42 0 0 Z " fill="#020202" transform="translate(162,83)"/>
<path d="M0 0 C1.32 0 2.64 0 4 0 C4 4.29 4 8.58 4 13 C2.68 13 1.36 13 0 13 C0 8.71 0 4.42 0 0 Z " fill="#050505" transform="translate(125,83)"/>
<path d="M0 0 C4.29 0 8.58 0 13 0 C13 1.32 13 2.64 13 4 C8.71 4 4.42 4 0 4 C0 2.68 0 1.36 0 0 Z " fill="#050505" transform="translate(37,78)"/>
<path d="M0 0 C1.32 0 2.64 0 4 0 C4 2.64 4 5.28 4 8 C1.03 8 -1.94 8 -5 8 C-5 6.68 -5 5.36 -5 4 C-3.35 4 -1.7 4 0 4 C0 2.68 0 1.36 0 0 Z " fill="#000000" transform="translate(18,74)"/>
<path d="M0 0 C4.29 0 8.58 0 13 0 C13 1.32 13 2.64 13 4 C8.71 4 4.42 4 0 4 C0 2.68 0 1.36 0 0 Z " fill="#010101" transform="translate(18,55)"/>
<path d="M0 0 C2.64 0 5.28 0 8 0 C8 1.32 8 2.64 8 4 C6.68 4 5.36 4 4 4 C4 5.65 4 7.3 4 9 C2.68 9 1.36 9 0 9 C0 6.03 0 3.06 0 0 Z " fill="#020202" transform="translate(97,36)"/>
<path d="M0 0 C3.96 1.98 3.96 1.98 8 4 C4.375 9.75 4.375 9.75 1 12 C0.67 8.04 0.34 4.08 0 0 Z " fill="#0B0B0B" transform="translate(91,81)"/>
<path d="M0 0 C1.65 0.33 3.3 0.66 5 1 C5 3.64 5 6.28 5 9 C3.68 9 2.36 9 1 9 C1 7.68 1 6.36 1 5 C-2.96 5 -6.92 5 -11 5 C-11 4.67 -11 4.34 -11 4 C-7.37 4 -3.74 4 0 4 C0 2.68 0 1.36 0 0 Z " fill="#0F0F0F" transform="translate(119,138)"/>
<path d="M0 0 C4.29 0 8.58 0 13 0 C13 1.32 13 2.64 13 4 C8.71 4 4.42 4 0 4 C0 2.68 0 1.36 0 0 Z " fill="#0C0C0C" transform="translate(23,32)"/>
<path d="M0 0 C5.61 0 11.22 0 17 0 C17 0.99 17 1.98 17 3 C13.04 3 9.08 3 5 3 C5 2.34 5 1.68 5 1 C4.34 1 3.68 1 3 1 C3 1.66 3 2.32 3 3 C2.01 3 1.02 3 0 3 C0 2.01 0 1.02 0 0 Z " fill="#010101" transform="translate(125,125)"/>
<path d="M0 0 C2.97 0 5.94 0 9 0 C9 1.65 9 3.3 9 5 C7.68 5 6.36 5 5 5 C5 10.94 5 16.88 5 23 C4.67 23 4.34 23 4 23 C4 15.74 4 8.48 4 1 C2.68 0.67 1.36 0.34 0 0 Z " fill="#363636" transform="translate(50,36)"/>
<path d="M0 0 C1.65 0 3.3 0 5 0 C3.68 0.33 2.36 0.66 1 1 C1 3.64 1 6.28 1 9 C1.99 9.33 2.98 9.66 4 10 C3.01 10 2.02 10 1 10 C0.67 11.32 0.34 12.64 0 14 C0 12.68 0 11.36 0 10 C-1.65 10 -3.3 10 -5 10 C-5 8.35 -5 6.7 -5 5 C-3.35 5 -1.7 5 0 5 C0 3.35 0 1.7 0 0 Z " fill="#333333" transform="translate(152,152)"/>
<path d="M0 0 C2.64 0 5.28 0 8 0 C8 0.66 8 1.32 8 2 C8.66 2 9.32 2 10 2 C10 1.34 10 0.68 10 0 C12.64 0 15.28 0 18 0 C18 0.99 18 1.98 18 3 C12 3 6 3 0 3 C0 2.01 0 1.02 0 0 Z " fill="#000000" transform="translate(134,102)"/>
<path d="M0 0 C1.65 0 3.3 0 5 0 C5 2.97 5 5.94 5 9 C3.35 9 1.7 9 0 9 C0 6.03 0 3.06 0 0 Z " fill="#171717" transform="translate(115,13)"/>
<path d="M0 0 C1.65 0 3.3 0 5 0 C5 1.65 5 3.3 5 5 C3.68 5 2.36 5 1 5 C1 5.99 1 6.98 1 8 C2.98 8 4.96 8 7 8 C6.01 8.495 6.01 8.495 5 9 C5 11.97 5 14.94 5 18 C4.67 18 4.34 18 4 18 C4 15.03 4 12.06 4 9 C2.68 9 1.36 9 0 9 C0 6.03 0 3.06 0 0 Z " fill="#3B3B3B" transform="translate(101,134)"/>
<path d="M0 0 C1.32 0 2.64 0 4 0 C4 1.65 4 3.3 4 5 C5.65 5 7.3 5 9 5 C9 5.99 9 6.98 9 8 C6.03 8 3.06 8 0 8 C0 5.36 0 2.72 0 0 Z " fill="#000000" transform="translate(106,41)"/>
<path d="M0 0 C1.32 0 2.64 0 4 0 C4 3.63 4 7.26 4 11 C2.68 11 1.36 11 0 11 C0 7.37 0 3.74 0 0 Z " fill="#080808" transform="translate(162,26)"/>
<path d="M0 0 C1.32 0 2.64 0 4 0 C4 0.66 4 1.32 4 2 C2.68 2 1.36 2 0 2 C0 4.31 0 6.62 0 9 C1.65 7.02 3.3 5.04 5 3 C5 7.35251187 2.93834489 8.92809398 0 12 C-2.171875 12.6796875 -2.171875 12.6796875 -4 13 C-3.52511102 11.01980257 -3.04497141 9.04086365 -2.5625 7.0625 C-2.29566406 5.96035156 -2.02882813 4.85820313 -1.75390625 3.72265625 C-1 1 -1 1 0 0 Z " fill="#A4A4A4" transform="translate(82,79)"/>
<path d="M0 0 C7.24137931 5.79310345 7.24137931 5.79310345 9 9 C8.875 11.1875 8.875 11.1875 8 13 C7.01 13.33 6.02 13.66 5 14 C5.33 12.68 5.66 11.36 6 10 C1.545 8.02 1.545 8.02 -3 6 C-3 5.34 -3 4.68 -3 4 C-0.69 4.66 1.62 5.32 4 6 C2.35 4.35 0.7 2.7 -1 1 C-0.67 0.67 -0.34 0.34 0 0 Z " fill="#CBCACA" transform="translate(92,75)"/>
<path d="M0 0 C0.33 0 0.66 0 1 0 C1 2.97 1 5.94 1 9 C3.97 9 6.94 9 10 9 C10 9.33 10 9.66 10 10 C8.35 10 6.7 10 5 10 C5 11.32 5 12.64 5 14 C3.35 14 1.7 14 0 14 C0 12.68 0 11.36 0 10 C-1.32 9.67 -2.64 9.34 -4 9 C-2.68 9 -1.36 9 0 9 C0 6.03 0 3.06 0 0 Z " fill="#A7A7A7" transform="translate(96,36)"/>
<path d="M0 0 C1.32 0.33 2.64 0.66 4 1 C4 4.3 4 7.6 4 11 C2.68 11 1.36 11 0 11 C0 7.37 0 3.74 0 0 Z " fill="#080808" transform="translate(13,26)"/>
<path d="M0 0 C0.33 1.32 0.66 2.64 1 4 C2.32 4.33 3.64 4.66 5 5 C3.68 5 2.36 5 1 5 C1 6.32 1 7.64 1 9 C2.32 9.33 3.64 9.66 5 10 C2.03 10 -0.94 10 -4 10 C-4 8.02 -4 6.04 -4 4 C-2.68 4 -1.36 4 0 4 C0 2.68 0 1.36 0 0 Z " fill="#A1A1A1" transform="translate(45,50)"/>
<path d="M0 0 C0.33 0.66 0.66 1.32 1 2 C2.32 2 3.64 2 5 2 C5 3.65 5 5.3 5 7 C2.36 7 -0.28 7 -3 7 C-3 5.35 -3 3.7 -3 2 C-2.01 2 -1.02 2 0 2 C0 1.34 0 0.68 0 0 Z " fill="#0B0B0B" transform="translate(26,24)"/>
<path d="M0 0 C1.32 0 2.64 0 4 0 C4 4.29 4 8.58 4 13 C3.01 13 2.02 13 1 13 C0.67 8.71 0.34 4.42 0 0 Z " fill="#020202" transform="translate(143,83)"/>
<path d="M0 0 C1.65 0 3.3 0 5 0 C5 1.65 5 3.3 5 5 C6.32 5.33 7.64 5.66 9 6 C7.68 6 6.36 6 5 6 C4.67 7.32 4.34 8.64 4 10 C4 8.68 4 7.36 4 6 C1.36 6 -1.28 6 -4 6 C-4 8.64 -4 11.28 -4 14 C-2.02 14.495 -2.02 14.495 0 15 C-1.65 15 -3.3 15 -5 15 C-5 11.7 -5 8.4 -5 5 C-2.03 5 0.94 5 4 5 C4 3.68 4 2.36 4 1 C2.68 0.67 1.36 0.34 0 0 Z " fill="#696969" transform="translate(157,68)"/>
<path d="M0 0 C6.27 0 12.54 0 19 0 C19 0.33 19 0.66 19 1 C14.38 1 9.76 1 5 1 C5 2.32 5 3.64 5 5 C3.35 5 1.7 5 0 5 C0 3.35 0 1.7 0 0 Z " fill="#C2C2C2" transform="translate(59,133)"/>
<path d="M0 0 C4.29 0 8.58 0 13 0 C13 0.99 13 1.98 13 3 C8.71 3 4.42 3 0 3 C0 2.01 0 1.02 0 0 Z " fill="#010101" transform="translate(148,60)"/>
<path d="M0 0 C0.33 0.66 0.66 1.32 1 2 C1.99 2 2.98 2 4 2 C4 1.34 4 0.68 4 0 C4.66 0.33 5.32 0.66 6 1 C5.34 2.98 4.68 4.96 4 7 C1.36 7 -1.28 7 -4 7 C-4 6.01 -4 5.02 -4 4 C-2.68 4 -1.36 4 0 4 C0 2.68 0 1.36 0 0 Z " fill="#0B0B0B" transform="translate(36,70)"/>
<path d="M0 0 C0 1.65 0 3.3 0 5 C-2.64 5 -5.28 5 -8 5 C-8 3.68 -8 2.36 -8 1 C-5.07175348 0.02391783 -3.04386724 -0.08226668 0 0 Z " fill="#0C0C0C" transform="translate(77,142)"/>
<path d="M0 0 C0.99 0 1.98 0 3 0 C3 2.31 3 4.62 3 7 C3.66 7 4.32 7 5 7 C5 6.34 5 5.68 5 5 C5.66 5 6.32 5 7 5 C7.33 5.99 7.66 6.98 8 8 C5.03 8 2.06 8 -1 8 C-0.67 5.36 -0.34 2.72 0 0 Z " fill="#020202" transform="translate(116,83)"/>
<path d="M0 0 C4.29 0 8.58 0 13 0 C13 0.99 13 1.98 13 3 C9.04 3 5.08 3 1 3 C0.67 2.01 0.34 1.02 0 0 Z " fill="#010101" transform="translate(129,74)"/>
<path d="M0 0 C2.97 0 5.94 0 9 0 C9 1.32 9 2.64 9 4 C5.67465243 5.10844919 3.37817425 4.84454356 0 4 C0 2.68 0 1.36 0 0 Z " fill="#050505" transform="translate(64,60)"/>
<path d="M0 0 C4.29 0 8.58 0 13 0 C13 0.99 13 1.98 13 3 C8.71 3 4.42 3 0 3 C0 2.01 0 1.02 0 0 Z " fill="#010101" transform="translate(18,51)"/>
<path d="M0 0 C2.97 0 5.94 0 9 0 C9 1.32 9 2.64 9 4 C6.03 4 3.06 4 0 4 C0 2.68 0 1.36 0 0 Z " fill="#040404" transform="translate(55,162)"/>
<path d="M0 0 C3.96 0 7.92 0 12 0 C12 0.99 12 1.98 12 3 C8.04 3 4.08 3 0 3 C0 2.01 0 1.02 0 0 Z " fill="#010101" transform="translate(130,144)"/>
<path d="M0 0 C1.98 0 3.96 0 6 0 C6 1.98 6 3.96 6 6 C4.02 6 2.04 6 0 6 C0 4.02 0 2.04 0 0 Z " fill="#616161" transform="translate(161,142)"/>
<path d="M0 0 C2.97 0 5.94 0 9 0 C9 1.32 9 2.64 9 4 C6.03 4 3.06 4 0 4 C0 2.68 0 1.36 0 0 Z " fill="#010101" transform="translate(157,134)"/>
<path d="M0 0 C4.62 0 9.24 0 14 0 C13.67 0.99 13.34 1.98 13 3 C12.01 3 11.02 3 10 3 C10 2.34 10 1.68 10 1 C9.34 1 8.68 1 8 1 C8 1.66 8 2.32 8 3 C5.36 3 2.72 3 0 3 C0 2.01 0 1.02 0 0 Z " fill="#010101" transform="translate(64,134)"/>
<path d="M0 0 C1.32 0 2.64 0 4 0 C4 2.97 4 5.94 4 9 C2.68 9 1.36 9 0 9 C0 6.03 0 3.06 0 0 Z " fill="#FCFCFC" transform="translate(120,129)"/>
<path d="M0 0 C2.97 0 5.94 0 9 0 C9 1.32 9 2.64 9 4 C6.03 4 3.06 4 0 4 C0 2.68 0 1.36 0 0 Z " fill="#060606" transform="translate(157,125)"/>
<path d="M0 0 C0.99 0 1.98 0 3 0 C3.33 0.33 3.66 0.66 4 1 C4 0.67 4 0.34 4 0 C6.97 0 9.94 0 13 0 C13 0.99 13 1.98 13 3 C8.71 3 4.42 3 0 3 C0 2.01 0 1.02 0 0 Z " fill="#010101" transform="translate(32,125)"/>
<path d="M0 0 C2.97 0 5.94 0 9 0 C9 1.32 9 2.64 9 4 C6.03 4 3.06 4 0 4 C0 2.68 0 1.36 0 0 Z " fill="#0B0B0B" transform="translate(73,120)"/>
<path d="M0 0 C1.32 0 2.64 0 4 0 C4 2.97 4 5.94 4 9 C2.68 9 1.36 9 0 9 C0 6.03 0 3.06 0 0 Z " fill="#090909" transform="translate(13,111)"/>
<path d="M0 0 C2.97 0 5.94 0 9 0 C9 1.32 9 2.64 9 4 C6.03 4 3.06 4 0 4 C0 2.68 0 1.36 0 0 Z " fill="#050505" transform="translate(22,111)"/>
<path d="M0 0 C2.97 0 5.94 0 9 0 C9 1.32 9 2.64 9 4 C6.03 4 3.06 4 0 4 C0 2.68 0 1.36 0 0 Z " fill="#020202" transform="translate(55,83)"/>
<path d="M0 0 C2.97 0 5.94 0 9 0 C9 1.32 9 2.64 9 4 C6.03 4 3.06 4 0 4 C0 2.68 0 1.36 0 0 Z " fill="#FBFBFB" transform="translate(36,64)"/>
<path d="M0 0 C2.97 0 5.94 0 9 0 C9 1.32 9 2.64 9 4 C6.03 4 3.06 4 0 4 C0 2.68 0 1.36 0 0 Z " fill="#060606" transform="translate(55,64)"/>
<path d="M0 0 C1.32 0 2.64 0 4 0 C4 2.97 4 5.94 4 9 C2.68 9 1.36 9 0 9 C0 6.03 0 3.06 0 0 Z " fill="#010101" transform="translate(13,64)"/>
<path d="M0 0 C1.32 0 2.64 0 4 0 C4 2.97 4 5.94 4 9 C2.68 9 1.36 9 0 9 C0 6.03 0 3.06 0 0 Z " fill="#040404" transform="translate(69,36)"/>
<path d="M0 0 C2.97 0 5.94 0 9 0 C9 1.32 9 2.64 9 4 C6.03 4 3.06 4 0 4 C0 2.68 0 1.36 0 0 Z " fill="#030303" transform="translate(92,27)"/>
<path d="M0 0 C0.33 0 0.66 0 1 0 C1 2.31 1 4.62 1 7 C3.64 7 6.28 7 9 7 C9 4.69 9 2.38 9 0 C9.33 0 9.66 0 10 0 C10 2.31 10 4.62 10 7 C11.32 7.33 12.64 7.66 14 8 C12.68 8 11.36 8 10 8 C9.67 8.66 9.34 9.32 9 10 C9 9.34 9 8.68 9 8 C7.68 8 6.36 8 5 8 C4.67 8.66 4.34 9.32 4 10 C4 9.34 4 8.68 4 8 C3.01 8 2.02 8 1 8 C0.67 9.32 0.34 10.64 0 12 C0 8.04 0 4.08 0 0 Z " fill="#212121" transform="translate(22,24)"/>
<path d="M0 0 C1.32 0 2.64 0 4 0 C4 2.97 4 5.94 4 9 C2.68 9 1.36 9 0 9 C0 6.03 0 3.06 0 0 Z " fill="#060606" transform="translate(125,13)"/>
<path d="M0 0 C1.65 0 3.3 0 5 0 C5 1.65 5 3.3 5 5 C3.68 5 2.36 5 1 5 C0.67 5.66 0.34 6.32 0 7 C0 6.34 0 5.68 0 5 C-2.64 5 -5.28 5 -8 5 C-8 4.67 -8 4.34 -8 4 C-5.36 4 -2.72 4 0 4 C0 2.68 0 1.36 0 0 Z " fill="#161616" transform="translate(142,120)"/>
<path d="M0 0 C1.65 0 3.3 0 5 0 C5 1.32 5 2.64 5 4 C6.32 4.33 7.64 4.66 9 5 C7.68 5 6.36 5 5 5 C4.67 5.66 4.34 6.32 4 7 C4 6.34 4 5.68 4 5 C1.36 5 -1.28 5 -4 5 C-2.68 4.67 -1.36 4.34 0 4 C0 2.68 0 1.36 0 0 Z " fill="#1A1A1A" transform="translate(22,83)"/>
<path d="M0 0 C0.33 0.66 0.66 1.32 1 2 C2.32 2 3.64 2 5 2 C5.33 1.34 5.66 0.68 6 0 C6 0.66 6 1.32 6 2 C8.97 2 11.94 2 15 2 C15 3.65 15 5.3 15 7 C14.67 5.68 14.34 4.36 14 3 C11.36 3 8.72 3 6 3 C5.67 4.32 5.34 5.64 5 7 C5 5.68 5 4.36 5 3 C0.71 3 -3.58 3 -8 3 C-8 2.67 -8 2.34 -8 2 C-5.36 2 -2.72 2 0 2 C0 1.34 0 0.68 0 0 Z " fill="#292929" transform="translate(26,52)"/>
<path d="M0 0 C0.33 0 0.66 0 1 0 C1 4.62 1 9.24 1 14 C1.99 14 2.98 14 4 14 C4 15.32 4 16.64 4 18 C0.04 18.495 0.04 18.495 -4 19 C-2.68 18.67 -1.36 18.34 0 18 C0 12.06 0 6.12 0 0 Z " fill="#262626" transform="translate(87,41)"/>
<path d="M0 0 C0.33 1.32 0.66 2.64 1 4 C2.32 4 3.64 4 5 4 C5 2.68 5 1.36 5 0 C6.65 0 8.3 0 10 0 C10 1.65 10 3.3 10 5 C6.7 5 3.4 5 0 5 C0 3.35 0 1.7 0 0 Z " fill="#B5B5B5" transform="translate(59,143)"/>
<path d="M0 0 C1.65 0 3.3 0 5 0 C5 1.32 5 2.64 5 4 C7.97 4 10.94 4 14 4 C14 4.33 14 4.66 14 5 C9.38 5 4.76 5 0 5 C0 3.35 0 1.7 0 0 Z " fill="#3B3B3B" transform="translate(152,120)"/>
<path d="M0 0 C1.65 0 3.3 0 5 0 C5 1.65 5 3.3 5 5 C0.38 5 -4.24 5 -9 5 C-9 4.67 -9 4.34 -9 4 C-6.03 4 -3.06 4 0 4 C0 2.68 0 1.36 0 0 Z " fill="#BFBFBF" transform="translate(50,106)"/>
<path d="M0 0 C2.31 0.66 4.62 1.32 7 2 C5.68 2.99 4.36 3.98 3 5 C4.92576115 7.43929746 6.80090595 9.80090595 9 12 C6 12 6 12 4.140625 10.390625 C3.20476562 9.33101562 3.20476562 9.33101562 2.25 8.25 C1.61578125 7.55390625 0.9815625 6.8578125 0.328125 6.140625 C-1 4 -1 4 -0.703125 1.734375 C-0.47109375 1.16203125 -0.2390625 0.5896875 0 0 Z " fill="#BEBDBD" transform="translate(79,91)"/>
<path d="M0 0 C1.65 0 3.3 0 5 0 C5 1.65 5 3.3 5 5 C6.32 5.33 7.64 5.66 9 6 C6.03 6 3.06 6 0 6 C0 4.02 0 2.04 0 0 Z " fill="#3D3D3D" transform="translate(78,26)"/>
<path d="M0 0 C1.65 0 3.3 0 5 0 C5 1.65 5 3.3 5 5 C3.68 5 2.36 5 1 5 C1 7.97 1 10.94 1 14 C0.67 14 0.34 14 0 14 C0 9.38 0 4.76 0 0 Z " fill="#434343" transform="translate(110,22)"/>
<path d="M0 0 C2.64 0 5.28 0 8 0 C8.33 1.32 8.66 2.64 9 4 C6.03 4 3.06 4 0 4 C0 2.68 0 1.36 0 0 Z " fill="#010101" transform="translate(64,148)"/>
<path d="M0 0 C2.64 0.33 5.28 0.66 8 1 C8 2.32 8 3.64 8 5 C5.36 5 2.72 5 0 5 C0 3.35 0 1.7 0 0 Z " fill="#070707" transform="translate(134,119)"/>
<path d="M0 0 C2.97 0 5.94 0 9 0 C8.67 1.32 8.34 2.64 8 4 C5.36 4 2.72 4 0 4 C0 2.68 0 1.36 0 0 Z " fill="#FEFEFE" transform="translate(55,69)"/>
<path d="M0 0 C1.65 0 3.3 0 5 0 C5 1.32 5 2.64 5 4 C6.32 4.33 7.64 4.66 9 5 C7.68 5 6.36 5 5 5 C4.67 6.32 4.34 7.64 4 9 C4 7.68 4 6.36 4 5 C2.68 5 1.36 5 0 5 C0 3.35 0 1.7 0 0 Z " fill="#BBBBBB" transform="translate(106,50)"/>
<path d="M0 0 C2.64 0 5.28 0 8 0 C8 1.32 8 2.64 8 4 C5.36 4 2.72 4 0 4 C0 2.68 0 1.36 0 0 Z " fill="#070707" transform="translate(139,148)"/>
<path d="M0 0 C0.99 0 1.98 0 3 0 C3 3.96 3 7.92 3 12 C2.01 12 1.02 12 0 12 C0 11.01 0 10.02 0 9 C0.66 9 1.32 9 2 9 C2 8.34 2 7.68 2 7 C1.34 7 0.68 7 0 7 C0 4.69 0 2.38 0 0 Z " fill="#000000" transform="translate(144,130)"/>
<path d="M0 0 C2.64 0 5.28 0 8 0 C8 1.32 8 2.64 8 4 C5.36 4 2.72 4 0 4 C0 2.68 0 1.36 0 0 Z " fill="#010101" transform="translate(153,97)"/>
<path d="M0 0 C1.32 0 2.64 0 4 0 C4 2.64 4 5.28 4 8 C2.68 8 1.36 8 0 8 C0 5.36 0 2.72 0 0 Z " fill="#F8F8F8" transform="translate(22,74)"/>
<path d="M0 0 C1.32 0 2.64 0 4 0 C4 2.64 4 5.28 4 8 C2.68 8 1.36 8 0 8 C0 5.36 0 2.72 0 0 Z " fill="#030303" transform="translate(78,37)"/>
<path d="M0 0 C2.64 0 5.28 0 8 0 C8 1.32 8 2.64 8 4 C5.36 4 2.72 4 0 4 C0 2.68 0 1.36 0 0 Z " fill="#030303" transform="translate(55,13)"/>
<path d="M0 0 C0.33 0.99 0.66 1.98 1 3 C1.99 3.33 2.98 3.66 4 4 C3.34 4 2.68 4 2 4 C2 4.66 2 5.32 2 6 C2.99 6.66 3.98 7.32 5 8 C2.36 8 -0.28 8 -3 8 C-2.67 6.35 -2.34 4.7 -2 3 C-1.34 3 -0.68 3 0 3 C0 2.01 0 1.02 0 0 Z " fill="#101010" transform="translate(114,149)"/>
<path d="M0 0 C0.66 0 1.32 0 2 0 C2 0.66 2 1.32 2 2 C2.99 2.33 3.98 2.66 5 3 C5 4.98 5 6.96 5 9 C3.68 9 2.36 9 1 9 C0.67 6.03 0.34 3.06 0 0 Z " fill="#0A0A0A" transform="translate(40,135)"/>
<path d="M0 0 C0 0.66 0 1.32 0 2 C-1.32 2 -2.64 2 -4 2 C-4 2.66 -4 3.32 -4 4 C-1.69 4.33 0.62 4.66 3 5 C3 5.33 3 5.66 3 6 C0.36 6 -2.28 6 -5 6 C-5.33 6.99 -5.66 7.98 -6 9 C-6 7.02 -6 5.04 -6 3 C-7.32 2.34 -8.64 1.68 -10 1 C-6.59437148 0.22157062 -3.49234244 -0.09978121 0 0 Z " fill="#212121" transform="translate(69,137)"/>
<path d="M0 0 C-1.55500981 3.81684226 -4.03595495 6.19195732 -7 9 C-6.67 6.36 -6.34 3.72 -6 1 C-3.92446352 0.4465236 -2.15634036 0 0 0 Z " fill="#161616" transform="translate(88,80)"/>
<path d="M0 0 C0.33 1.32 0.66 2.64 1 4 C4.3 4 7.6 4 11 4 C10.67 4.99 10.34 5.98 10 7 C10 6.34 10 5.68 10 5 C7.03 5 4.06 5 1 5 C1 7.97 1 10.94 1 14 C0.67 14 0.34 14 0 14 C0 11.03 0 8.06 0 5 C-1.32 4.67 -2.64 4.34 -4 4 C-2.68 4 -1.36 4 0 4 C0 2.68 0 1.36 0 0 Z " fill="#7B7B7B" transform="translate(54,64)"/>
<path d="M0 0 C1.65 0 3.3 0 5 0 C5 2.97 5 5.94 5 9 C4.67 7.68 4.34 6.36 4 5 C2.68 5 1.36 5 0 5 C0 3.35 0 1.7 0 0 Z " fill="#191919" transform="translate(138,157)"/>
<path d="M0 0 C2.64 0.33 5.28 0.66 8 1 C8.33 1.99 8.66 2.98 9 4 C6.03 4 3.06 4 0 4 C0 2.68 0 1.36 0 0 Z " fill="#000000" transform="translate(41,106)"/>
<path d="M0 0 C1.65 0 3.3 0 5 0 C5 2.97 5 5.94 5 9 C4.67 7.68 4.34 6.36 4 5 C2.68 5 1.36 5 0 5 C0 3.35 0 1.7 0 0 Z " fill="#2D2D2D" transform="translate(78,50)"/>
<path d="M0 0 C0.33 0 0.66 0 1 0 C1 2.97 1 5.94 1 9 C-0.65 9 -2.3 9 -4 9 C-4 7.35 -4 5.7 -4 4 C-2.68 4 -1.36 4 0 4 C0 2.68 0 1.36 0 0 Z " fill="#1F1F1F" transform="translate(119,36)"/>
<path d="M0 0 C0 0.99 0 1.98 0 3 C-2.97 3 -5.94 3 -9 3 C-9.33 2.34 -9.66 1.68 -10 1 C-6.78548731 -0.60725635 -3.56387464 -0.05748185 0 0 Z " fill="#020202" transform="translate(50,116)"/>
<path d="M0 0 C1.32 0.33 2.64 0.66 4 1 C4 3.33333333 4 5.66666667 4 8 C2.68 8 1.36 8 0 8 C0 5.36 0 2.72 0 0 Z " fill="#000000" transform="translate(134,88)"/>
<path d="M0 0 C0.99 0 1.98 0 3 0 C3 2.64 3 5.28 3 8 C1.68 8 0.36 8 -1 8 C-0.67 5.36 -0.34 2.72 0 0 Z " fill="#000000" transform="translate(149,65)"/>
<path d="M0 0 C0.33 0.99 0.66 1.98 1 3 C1.99 3 2.98 3 4 3 C4 4.98 4 6.96 4 9 C2.68 9 1.36 9 0 9 C0 6.03 0 3.06 0 0 Z " fill="#0E0E0E" transform="translate(50,46)"/>
<path d="M0 0 C0.99 0 1.98 0 3 0 C3.33 2.64 3.66 5.28 4 8 C2.68 8 1.36 8 0 8 C0 5.36 0 2.72 0 0 Z " fill="#020202" transform="translate(125,107)"/>
<path d="M0 0 C0.99 0 1.98 0 3 0 C3.33 2.64 3.66 5.28 4 8 C2.35 8 0.7 8 -1 8 C-0.67 5.36 -0.34 2.72 0 0 Z " fill="#030303" transform="translate(139,83)"/>
<path d="M0 0 C0.99 0 1.98 0 3 0 C3 2.64 3 5.28 3 8 C1.68 7.67 0.36 7.34 -1 7 C-0.67 4.69 -0.34 2.38 0 0 Z " fill="#000000" transform="translate(51,153)"/>
<path d="M0 0 C1.32 0 2.64 0 4 0 C4 2.31 4 4.62 4 7 C2.68 7 1.36 7 0 7 C0 4.69 0 2.38 0 0 Z " fill="#020202" transform="translate(83,149)"/>
<path d="M0 0 C2.97 0 5.94 0 9 0 C9 0.99 9 1.98 9 3 C6.36 3 3.72 3 1 3 C0.67 2.01 0.34 1.02 0 0 Z " fill="#020202" transform="translate(22,125)"/>
<path d="M0 0 C1.65 0 3.3 0 5 0 C5 1.65 5 3.3 5 5 C3.35 5 1.7 5 0 5 C0 3.35 0 1.7 0 0 Z " fill="#2F2F2F" transform="translate(13,124)"/>
<path d="M0 0 C1.32 0 2.64 0 4 0 C4 2.64 4 5.28 4 8 C2.68 7.67 1.36 7.34 0 7 C0.2784375 6.1028125 0.2784375 6.1028125 0.5625 5.1875 C1.22093687 2.83591238 1.22093687 2.83591238 0 0 Z " fill="#020202" transform="translate(115,111)"/>
<path d="M0 0 C1.65 0 3.3 0 5 0 C5 1.65 5 3.3 5 5 C3.35 5 1.7 5 0 5 C0 3.35 0 1.7 0 0 Z " fill="#272727" transform="translate(115,101)"/>
<path d="M0 0 C1.65 0 3.3 0 5 0 C5 1.65 5 3.3 5 5 C3.35 5 1.7 5 0 5 C0 3.35 0 1.7 0 0 Z " fill="#272727" transform="translate(36,101)"/>
<path d="M0 0 C1.65 0 3.3 0 5 0 C5 1.65 5 3.3 5 5 C3.35 5 1.7 5 0 5 C0 3.35 0 1.7 0 0 Z " fill="#2B2B2B" transform="translate(59,92)"/>
<path d="M0 0 C2.97 0 5.94 0 9 0 C8.67 0.99 8.34 1.98 8 3 C5.36 3 2.72 3 0 3 C0 2.01 0 1.02 0 0 Z " fill="#020202" transform="translate(134,69)"/>
<path d="M0 0 C0.99 0 1.98 0 3 0 C3.33 2.64 3.66 5.28 4 8 C2.68 8 1.36 8 0 8 C0 5.36 0 2.72 0 0 Z " fill="#020202" transform="translate(32,60)"/>
<path d="M0 0 C1.65 0 3.3 0 5 0 C5 1.65 5 3.3 5 5 C3.35 5 1.7 5 0 5 C0 3.35 0 1.7 0 0 Z " fill="#262626" transform="translate(152,50)"/>
<path d="M0 0 C2.64 0 5.28 0 8 0 C8 1.32 8 2.64 8 4 C5.69 4.33 3.38 4.66 1 5 C1.66 4.67 2.32 4.34 3 4 C3 3.34 3 2.68 3 2 C2.01 1.34 1.02 0.68 0 0 Z " fill="#101010" transform="translate(97,36)"/>
<path d="M0 0 C2.97 0 5.94 0 9 0 C9 0.99 9 1.98 9 3 C6.03 3 3.06 3 0 3 C0 2.01 0 1.02 0 0 Z " fill="#010101" transform="translate(50,23)"/>
<path d="M0 0 C2.64 0 5.28 0 8 0 C8 0.99 8 1.98 8 3 C5.36 3 2.72 3 0 3 C0 2.01 0 1.02 0 0 Z " fill="#010101" transform="translate(60,125)"/>
<path d="M0 0 C2.64 0 5.28 0 8 0 C8 0.99 8 1.98 8 3 C5.36 3 2.72 3 0 3 C0 2.01 0 1.02 0 0 Z " fill="#000000" transform="translate(83,116)"/>
<path d="M0 0 C1.32 0 2.64 0 4 0 C4 1.98 4 3.96 4 6 C2.68 6 1.36 6 0 6 C0 4.02 0 2.04 0 0 Z " fill="#0C0C0C" transform="translate(162,101)"/>
<path d="M0 0 C1.32 0 2.64 0 4 0 C4 1.65 4 3.3 4 5 C1.36 5 -1.28 5 -4 5 C-2.68 4.67 -1.36 4.34 0 4 C0 2.68 0 1.36 0 0 Z " fill="#121212" transform="translate(50,97)"/>
<path d="M0 0 C2.64 0 5.28 0 8 0 C8 0.99 8 1.98 8 3 C5.36 3 2.72 3 0 3 C0 2.01 0 1.02 0 0 Z " fill="#000000" transform="translate(18,97)"/>
<path d="M0 0 C2.64 0 5.28 0 8 0 C8 0.99 8 1.98 8 3 C5.36 3 2.72 3 0 3 C0 2.01 0 1.02 0 0 Z " fill="#010101" transform="translate(153,92)"/>
<path d="M0 0 C2.64 0 5.28 0 8 0 C8 0.99 8 1.98 8 3 C5.36 3 2.72 3 0 3 C0 2.01 0 1.02 0 0 Z " fill="#000000" transform="translate(153,79)"/>
<path d="M0 0 C2.64 0 5.28 0 8 0 C8 0.99 8 1.98 8 3 C5.36 3 2.72 3 0 3 C0 2.01 0 1.02 0 0 Z " fill="#000000" transform="translate(153,74)"/>
<path d="M0 0 C0.99 0 1.98 0 3 0 C3 2.64 3 5.28 3 8 C2.01 8 1.02 8 0 8 C0 5.36 0 2.72 0 0 Z " fill="#000000" transform="translate(125,64)"/>
<path d="M0 0 C2.64 0 5.28 0 8 0 C8 0.99 8 1.98 8 3 C5.36 3 2.72 3 0 3 C0 2.01 0 1.02 0 0 Z " fill="#010101" transform="translate(37,51)"/>
<path d="M0 0 C0.99 0 1.98 0 3 0 C3 2.64 3 5.28 3 8 C2.01 8 1.02 8 0 8 C0 5.36 0 2.72 0 0 Z " fill="#000000" transform="translate(88,41)"/>
<path d="M0 0 C0.99 0 1.98 0 3 0 C3 2.64 3 5.28 3 8 C2.01 8 1.02 8 0 8 C0 5.36 0 2.72 0 0 Z " fill="#000000" transform="translate(60,18)"/>
<path d="M0 0 C1.32 0 2.64 0 4 0 C4 1.32 4 2.64 4 4 C1.36 4.33 -1.28 4.66 -4 5 C-3.34 4.67 -2.68 4.34 -2 4 C-0.86649466 1.98330173 -0.86649466 1.98330173 0 0 Z " fill="#0C0C0C" transform="translate(74,13)"/>
<path d="M0 0 C2.64 0 5.28 0 8 0 C8.33 0.99 8.66 1.98 9 3 C6.03 3 3.06 3 0 3 C0 2.01 0 1.02 0 0 Z " fill="#010101" transform="translate(148,144)"/>
<path d="M0 0 C-0.66 1.32 -1.32 2.64 -2 4 C-3.65 4 -5.3 4 -7 4 C-7 2.68 -7 1.36 -7 0 C-2.25 -1.125 -2.25 -1.125 0 0 Z " fill="#090909" transform="translate(57,111)"/>
<path d="M0 0 C0.99 0 1.98 0 3 0 C3 2.64 3 5.28 3 8 C1.68 7.67 0.36 7.34 -1 7 C-0.67 4.69 -0.34 2.38 0 0 Z " fill="#010101" transform="translate(37,88)"/>
<path d="M0 0 C1.32 0 2.64 0 4 0 C4 1.65 4 3.3 4 5 C2.68 5 1.36 5 0 5 C-0.33 5.66 -0.66 6.32 -1 7 C-0.67 4.69 -0.34 2.38 0 0 Z " fill="#0C0C0C" transform="translate(18,74)"/>
<path d="M0 0 C1.65 0 3.3 0 5 0 C5 1.32 5 2.64 5 4 C3.02 4 1.04 4 -1 4 C-0.67 2.68 -0.34 1.36 0 0 Z " fill="#070707" transform="translate(92,18)"/>
<path d="M0 0 C1.98 0 3.96 0 6 0 C6 1.32 6 2.64 6 4 C4.35 4 2.7 4 1 4 C0.67 2.68 0.34 1.36 0 0 Z " fill="#080808" transform="translate(142,13)"/>
<path d="M0 0 C2.64 0 5.28 0 8 0 C8 0.99 8 1.98 8 3 C5.36 3 2.72 3 0 3 C0 2.01 0 1.02 0 0 Z " fill="#010101" transform="translate(23,144)"/>
<path d="M0 0 C2.31 0 4.62 0 7 0 C7 0.99 7 1.98 7 3 C4.36 3 1.72 3 -1 3 C-0.67 2.01 -0.34 1.02 0 0 Z " fill="#000000" transform="translate(65,139)"/>
<path d="M0 0 C1.60031344 3.20062687 0.03173691 5.72271806 -1 9 C-2.32 8.34 -3.64 7.68 -5 7 C-3.35 4.69 -1.7 2.38 0 0 Z " fill="#0F0F0F" transform="translate(98,88)"/>
<path d="M0 0 C2.64 0 5.28 0 8 0 C8 0.99 8 1.98 8 3 C5.36 3 2.72 3 0 3 C0 2.01 0 1.02 0 0 Z " fill="#010101" transform="translate(148,32)"/>
<path d="M0 0 C2.64 0 5.28 0 8 0 C8 0.99 8 1.98 8 3 C5.36 3 2.72 3 0 3 C0 2.01 0 1.02 0 0 Z " fill="#010101" transform="translate(23,32)"/>
<path d="M0 0 C0.99 0 1.98 0 3 0 C3 2.31 3 4.62 3 7 C2.01 7 1.02 7 0 7 C0 4.69 0 2.38 0 0 Z " fill="#030303" transform="translate(74,149)"/>
<path d="M0 0 C0.99 0 1.98 0 3 0 C3 2.31 3 4.62 3 7 C2.01 7 1.02 7 0 7 C0 4.69 0 2.38 0 0 Z " fill="#000000" transform="translate(125,130)"/>
<path d="M0 0 C0.99 0 1.98 0 3 0 C3 2.31 3 4.62 3 7 C2.01 7 1.02 7 0 7 C0 4.69 0 2.38 0 0 Z " fill="#000000" transform="translate(51,42)"/>
<path d="M0 0 C1.32 0 2.64 0 4 0 C4 1.65 4 3.3 4 5 C2.68 5 1.36 5 0 5 C0 3.35 0 1.7 0 0 Z " fill="#131313" transform="translate(162,152)"/>
<path d="M0 0 C1.65 0 3.3 0 5 0 C5 0.99 5 1.98 5 3 C3.68 3 2.36 3 1 3 C1 4.65 1 6.3 1 8 C0.67 8 0.34 8 0 8 C0 5.36 0 2.72 0 0 Z " fill="#0C0C0C" transform="translate(91,153)"/>
<path d="M0 0 C2.31 0 4.62 0 7 0 C7 0.99 7 1.98 7 3 C4.36 3 1.72 3 -1 3 C-0.67 2.01 -0.34 1.02 0 0 Z " fill="#000000" transform="translate(84,139)"/>
<path d="M0 0 C1.65 0 3.3 0 5 0 C5 1.32 5 2.64 5 4 C3.35 4 1.7 4 0 4 C0 2.68 0 1.36 0 0 Z " fill="#ECECEC" transform="translate(101,134)"/>
<path d="M0 0 C1.32 0 2.64 0 4 0 C4 1.65 4 3.3 4 5 C2.68 5 1.36 5 0 5 C0 3.35 0 1.7 0 0 Z " fill="#0A0A0A" transform="translate(83,119)"/>
<path d="M0 0 C2.31 0.66 4.62 1.32 7 2 C7 2.99 7 3.98 7 5 C5.35 5 3.7 5 2 5 C2 4.01 2 3.02 2 2 C1.34 2 0.68 2 0 2 C0 1.34 0 0.68 0 0 Z " fill="#070707" transform="translate(135,114)"/>
<path d="M0 0 C1.65 0 3.3 0 5 0 C5 1.32 5 2.64 5 4 C3.35 4 1.7 4 0 4 C0 2.68 0 1.36 0 0 Z " fill="#101010" transform="translate(152,106)"/>
<path d="M0 0 C1.32 0 2.64 0 4 0 C4 1.65 4 3.3 4 5 C2.68 5 1.36 5 0 5 C0 3.35 0 1.7 0 0 Z " fill="#E7E7E7" transform="translate(41,101)"/>
<path d="M0 0 C1.65 0 3.3 0 5 0 C5 1.32 5 2.64 5 4 C3.35 4 1.7 4 0 4 C0 2.68 0 1.36 0 0 Z " fill="#070707" transform="translate(26,55)"/>
<path d="M0 0 C1.32 0 2.64 0 4 0 C4 1.65 4 3.3 4 5 C2.68 5 1.36 5 0 5 C0 3.35 0 1.7 0 0 Z " fill="#060606" transform="translate(106,55)"/>
<path d="M0 0 C1.65 0 3.3 0 5 0 C5 1.32 5 2.64 5 4 C3.35 4 1.7 4 0 4 C0 2.68 0 1.36 0 0 Z " fill="#181818" transform="translate(73,46)"/>
<path d="M0 0 C1.65 0 3.3 0 5 0 C5 1.32 5 2.64 5 4 C3.35 4 1.7 4 0 4 C0 2.68 0 1.36 0 0 Z " fill="#EBEBEB" transform="translate(101,41)"/>
<path d="M0 0 C1.65 0 3.3 0 5 0 C5 1.32 5 2.64 5 4 C3.35 4 1.7 4 0 4 C0 2.68 0 1.36 0 0 Z " fill="#111111" transform="translate(59,41)"/>
<path d="M0 0 C1.32 0 2.64 0 4 0 C4 1.65 4 3.3 4 5 C2.68 5 1.36 5 0 5 C0 3.35 0 1.7 0 0 Z " fill="#EBEBEB" transform="translate(92,22)"/>
<path d="M0 0 C2.02054804 1.64169528 4.02043058 3.30911778 6 5 C6 5.33 6 5.66 6 6 C4.02 6 2.04 6 0 6 C0 4.02 0 2.04 0 0 Z " fill="#0C0C0C" transform="translate(64,109)"/>
<path d="M0 0 C1.65 0 3.3 0 5 0 C4.67 1.32 4.34 2.64 4 4 C2.35 3.67 0.7 3.34 -1 3 C-0.67 2.01 -0.34 1.02 0 0 Z " fill="#060606" transform="translate(102,130)"/>
<path d="M0 0 C1.32 0 2.64 0 4 0 C4.33 1.32 4.66 2.64 5 4 C3.35 4 1.7 4 0 4 C0 2.68 0 1.36 0 0 Z " fill="#010101" transform="translate(92,120)"/>
</svg>
